<?xml version="1.0" encoding="utf-8"?>
<!-- Generator: Adobe Illustrator 24.0.2, SVG Export Plug-In . SVG Version: 6.00 Build 0)  -->
<svg version="1.1" id="Layer_1" xmlns="http://www.w3.org/2000/svg" xmlns:xlink="http://www.w3.org/1999/xlink" x="0px" y="0px"
	 viewBox="0 0 180 80" style="enable-background:new 0 0 180 80;" xml:space="preserve">
<style type="text/css">
	.st0{fill:none;stroke:#31302B;stroke-width:4;stroke-miterlimit:10;}
	.st1{fill:#31302B;stroke:#31302B;stroke-width:2;stroke-miterlimit:10;}
</style>
<g>
	<path class="st0" d="M28.82,24.32c-0.01-4.7,3.8-8.51,8.49-8.51"/>
	<path class="st0" d="M18.53,54.27c-4.7,0-8.5-3.81-8.5-8.5s3.81-8.5,8.5-8.5s8.5,3.81,8.5,8.5"/>
	<path class="st0" d="M27.04,45.77c0-4.7,3.81-8.5,8.5-8.5s8.5,3.81,8.5,8.5s-3.81,8.5-8.5,8.5"/>
	<path class="st0" d="M27.04,42.97"/>
	<g>
		<path class="st0" d="M27.04,64.19c-4.28,0-7.75-3.47-7.75-7.75s3.47-7.75,7.75-7.75"/>
		<path class="st0" d="M27.04,64.19c4.28,0,7.75-3.47,7.75-7.75s-3.47-7.75-7.75-7.75"/>
	</g>
	<g>
		<path class="st0" d="M19.35,35.09c0-4.21,3.41-7.62,7.62-7.62"/>
		<path class="st0" d="M26.97,42.72"/>
		<path class="st0" d="M34.59,35.09c0-4.21-3.41-7.62-7.62-7.62"/>
		<path class="st0" d="M26.97,42.72"/>
	</g>
	<g>
		<path class="st0" d="M43.58,42.97c3.64-2.56,4.51-7.58,1.95-11.21c-2.56-3.64-7.58-4.51-11.21-1.95"/>
		<path class="st0" d="M34.32,29.81"/>
		<path class="st0" d="M32.37,41.02"/>
		<path class="st0" d="M43.58,42.97"/>
	</g>
	<g>
		<path class="st0" d="M10.42,42.77c-3.64-2.56-4.51-7.58-1.95-11.21s7.58-4.51,11.21-1.95"/>
		<path class="st0" d="M19.68,29.6"/>
		<path class="st0" d="M21.63,40.81"/>
		<path class="st0" d="M10.42,42.77"/>
	</g>
</g>
<g>
	<path class="st1" d="M56.9,41.12c0-8.67,5.28-13.76,11.86-13.76c3.58,0,6.05,1.64,7.65,3.38l-2.61,3.34
		c-1.24-1.24-2.64-2.2-4.88-2.2c-4.11,0-6.98,3.41-6.98,9.07c0,5.72,2.47,9.17,7.35,9.17c1.17,0,2.37-0.36,3.07-1v-5.19h-4.38v-4.3
		h8.79V51.5c-1.67,1.74-4.58,3.16-8.02,3.16C62.04,54.67,56.9,49.9,56.9,41.12z"/>
	<path class="st1" d="M81.49,46.7V34.26h4.91v11.77c0,3.06,0.8,4.16,2.61,4.16c1.54,0,2.54-0.71,3.81-2.49V34.26h4.91v19.91h-4.01
		l-0.37-2.84h-0.13c-1.6,2.03-3.41,3.34-5.95,3.34C83.23,54.67,81.49,51.68,81.49,46.7z"/>
	<path class="st1" d="M102.98,34.26h4.01l0.37,2.67h0.1c1.57-1.74,3.31-3.16,5.75-3.16c2.67,0,4.24,1.28,5.15,3.48
		c1.7-1.92,3.51-3.48,5.95-3.48c3.98,0,5.81,2.99,5.81,8v12.41h-4.91V42.4c0-3.09-0.84-4.16-2.61-4.16c-1.07,0-2.27,0.75-3.61,2.24
		v13.69h-4.88V42.4c0-3.09-0.87-4.16-2.64-4.16c-1.07,0-2.27,0.75-3.58,2.24v13.69h-4.91V34.26z"/>
	<path class="st1" d="M135.2,34.26h4.01l0.37,2.67h0.1c1.57-1.74,3.31-3.16,5.75-3.16c2.67,0,4.24,1.28,5.15,3.48
		c1.7-1.92,3.51-3.48,5.95-3.48c3.98,0,5.81,2.99,5.81,8v12.41h-4.91V42.4c0-3.09-0.84-4.16-2.61-4.16c-1.07,0-2.27,0.75-3.61,2.24
		v13.69h-4.88V42.4c0-3.09-0.87-4.16-2.64-4.16c-1.07,0-2.27,0.75-3.58,2.24v13.69h-4.91V34.26z"/>
	<path class="st1" d="M167.01,28.18c0-1.71,1.17-2.84,2.87-2.84c1.67,0,2.84,1.14,2.84,2.84c0,1.74-1.17,2.88-2.84,2.88
		C168.18,31.06,167.01,29.92,167.01,28.18z M167.41,34.26h4.91v19.91h-4.91V34.26z"/>
</g>
</svg>
