<?xml version="1.0" encoding="utf-8"?>
<!-- Generator: Adobe Illustrator 24.0.2, SVG Export Plug-In . SVG Version: 6.00 Build 0)  -->
<svg version="1.1" id="Layer_1" xmlns="http://www.w3.org/2000/svg" xmlns:xlink="http://www.w3.org/1999/xlink" x="0px" y="0px"
	 viewBox="0 0 1460 430" style="enable-background:new 0 0 1460 430;" xml:space="preserve">
<style type="text/css">
	.st0{fill:#9CD083;}
	.st1{fill:none;}
	.st2{fill:#FFFFFF;}
	.st3{font-family:'Pretendard-Bold-KSCpc-EUC-H';}
	.st4{font-size:35px;}
	.st5{fill:#E6E6E6;}
	.st6{fill:#F2F2F2;}
	.st7{fill:#D08383;}
	.st8{fill:#2F2E41;}
	.st9{fill:#F1F1F1;}
	.st10{fill:#E5E5E5;}
	.st11{fill:#CBCBCB;}
	.st12{fill:#3F3D56;}
</style>
<rect x="-0.13" y="1.04" class="st0" width="1460.13" height="430"/>
<rect x="762.75" y="160.44" class="st1" width="597.25" height="132.46"/>
<text transform="matrix(1 0 0 1 762.7486 185.1879)"><tspan x="0" y="0" class="st2 st3 st4">안심하고 재능을 나누세요 !</tspan><tspan x="0" y="60" class="st2 st3 st4">Gummi에서는 여러분을 지키고 보호합니다</tspan></text>
<g>
	<path id="ad903c08-5677-4dbe-a9c7-05a0eb46801f-576" class="st5" d="M139.47,347.63c4.62,1.62,9.76,0.72,13.55-2.39
		c4.75-3.98,6.23-10.54,7.44-16.62l3.58-17.97l-7.5,5.16c-5.39,3.71-10.9,7.54-14.64,12.92c-3.73,5.38-5.36,12.72-2.36,18.53"/>
	<path id="a94887ac-0642-4b28-b311-c351a0f7f12b-577" class="st6" d="M140.11,369.38c-0.76-5.53-1.54-11.12-1.01-16.71
		c0.47-4.96,1.99-9.81,5.07-13.78c1.64-2.1,3.63-3.91,5.88-5.33c0.59-0.37,1.13,0.56,0.54,0.93c-3.9,2.47-6.92,6.11-8.62,10.4
		c-1.88,4.77-2.18,9.98-1.85,15.05c0.2,3.07,0.61,6.11,1.03,9.15c0.07,0.29-0.1,0.58-0.38,0.66
		C140.49,369.84,140.19,369.67,140.11,369.38L140.11,369.38z"/>
	<path class="st7" d="M290.44,250.32c-0.55,0.26-1.15,0.4-1.76,0.41l-56.55,1.55c-4.9,0.11-8.96-3.78-9.07-8.68
		c-0.11-4.9,3.78-8.96,8.68-9.07l56.55-1.55c2.38-0.05,4.36,1.84,4.41,4.23l0.2,9.11C292.94,248.02,291.97,249.59,290.44,250.32z"/>
	<path class="st7" d="M217.88,369.5h-9.11c-2.39,0-4.32-1.94-4.32-4.32v-75.93c0-2.39,1.94-4.32,4.32-4.32h9.11
		c2.39,0,4.32,1.94,4.32,4.32v75.93C222.2,367.56,220.26,369.5,217.88,369.5z"/>
	<path class="st7" d="M242.07,369.5h-9.11c-2.39,0-4.32-1.94-4.32-4.32v-75.93c0-2.39,1.94-4.32,4.32-4.32h9.11
		c2.39,0,4.32,1.94,4.32,4.32v75.93C246.39,367.56,244.46,369.5,242.07,369.5z"/>
	<circle class="st7" cx="226.31" cy="174.5" r="31.48"/>
	<path class="st8" d="M237,311.85h-22.65c-14.75,0.06-26.76-11.86-26.81-26.61c-0.02-4.76,1.24-9.43,3.63-13.55l31.67-54.86
		c1.11-1.92,3.56-2.58,5.48-1.47c0.61,0.35,1.12,0.86,1.47,1.47l31.03,53.75c7.6,13.16,3.09,29.98-10.07,37.58
		C246.57,310.58,241.82,311.85,237,311.85z"/>
	<path class="st8" d="M233.74,187.72c2.04-0.06,4.58-0.13,6.54-1.56c1.18-0.9,1.9-2.27,1.98-3.75c0.07-1.05-0.35-2.08-1.15-2.77
		c-1.02-0.86-2.51-1.07-4.12-0.59l1.67-12.18l-1.22-0.17l-1.96,14.31l1.02-0.47c1.18-0.54,2.81-0.82,3.82,0.03
		c0.5,0.45,0.77,1.11,0.71,1.79c-0.06,1.1-0.6,2.12-1.47,2.79c-1.52,1.11-3.55,1.26-5.84,1.32L233.74,187.72z"/>
	<rect x="244.7" y="167.92" class="st8" width="6.65" height="1.23"/>
	<rect x="223.71" y="167.92" class="st8" width="6.65" height="1.23"/>
	<path class="st7" d="M218.9,304.81c-0.26-0.55-0.4-1.15-0.41-1.76l-1.55-56.55c-0.11-4.9,3.78-8.96,8.68-9.07s8.96,3.78,9.07,8.68
		l1.55,56.55c0.05,2.38-1.84,4.36-4.23,4.41l-9.11,0.2C221.2,307.31,219.64,306.35,218.9,304.81L218.9,304.81z"/>
	<path class="st8" d="M223.39,151.23c3.82,5,9.9,8.36,16.31,7.56c6.11-0.76,11.15-5.02,12.42-11.11c1.12-5.85-0.67-11.88-4.81-16.17
		c-4.33-4.55-10.52-7-16.64-7.84c-11.61-1.59-23.53,2.5-32.31,10.12c-4.41,3.79-7.93,8.51-10.3,13.81
		c-2.29,5.27-3.38,10.98-3.19,16.71c0.34,11.34,5.31,22.66,13.88,30.19c1.06,0.93,2.18,1.8,3.34,2.61c0.98,0.69,1.9-0.92,0.93-1.6
		c-8.78-6.16-14.38-16.18-15.92-26.71c-1.63-10.74,1.54-21.65,8.67-29.84c7.09-8.06,17.48-13.3,28.25-13.77
		c10.83-0.47,24.37,4.36,26.4,16.42c0.91,5.4-1.11,11.09-6.06,13.79c-5.3,2.9-11.81,1.7-16.36-2.04c-1.12-0.91-2.12-1.95-3-3.09
		C224.27,149.36,222.66,150.29,223.39,151.23L223.39,151.23z"/>
	
		<rect id="fc777aff-63b1-4720-84dc-e3a9c20790b9" x="282.62" y="87.67" transform="matrix(0.9897 -0.143 0.143 0.9897 -17.3992 61.2577)" class="st9" width="269.87" height="128.06"/>
	
		<rect id="ecffa418-b240-4504-be04-512edea7ccda" x="290.39" y="98.65" transform="matrix(0.9897 -0.143 0.143 0.9897 -17.4515 61.2691)" class="st2" width="254.44" height="106.84"/>
	
		<rect id="b49ce3f1-9d75-4481-986b-3b6beb000c79" x="273.11" y="80.96" transform="matrix(0.9897 -0.143 0.143 0.9897 -8.2029 59.2307)" class="st10" width="269.87" height="11.47"/>
	<circle id="a4219562-805a-49cd-8b89-b1f92f7a9e75" class="st2" cx="283.07" cy="105.77" r="2.12"/>
	<circle id="b0f6399c-6944-4f74-a888-473f61f9730c" class="st2" cx="291.06" cy="104.61" r="2.12"/>
	<circle id="b03f93dc-2c99-4323-9b17-02f51b8830c0" class="st2" cx="299.04" cy="103.46" r="2.12"/>
	<rect id="a6067cfc-0392-4d68-afe4-e34d11a8f0ac" x="333.43" y="123.57" class="st5" width="269.87" height="128.06"/>
	<rect id="ecd65817-7467-4dbd-a435-c0f1d9841c98" x="341.15" y="134.55" class="st2" width="254.44" height="106.84"/>
	<rect id="eea6c39d-8a45-4eb1-bab9-6120f465de14" x="333.32" y="116.17" class="st11" width="269.87" height="11.47"/>
	<circle id="ab9e51f9-7431-4d30-8193-f9435a6bd5c3" class="st2" cx="341.84" cy="122.91" r="2.12"/>
	<circle id="a54ed687-3b0d-413b-b405-af8897a5c032" class="st2" cx="349.9" cy="122.91" r="2.12"/>
	<circle id="fd1d2195-7e97-488f-8f4b-7061a06deb9a" class="st2" cx="357.97" cy="122.91" r="2.12"/>
	<rect x="487.77" y="150.8" class="st5" width="35.83" height="2.69"/>
	<rect x="487.77" y="158.7" class="st5" width="55.34" height="2.69"/>
	<rect x="488.34" y="166.23" class="st5" width="45.1" height="2.69"/>
	<rect x="487.77" y="174.5" class="st5" width="26.33" height="2.69"/>
	<rect x="487.77" y="182.57" class="st5" width="39.73" height="2.69"/>
	<rect x="471.43" y="149.95" class="st5" width="4.39" height="4.39"/>
	<rect x="471.43" y="157.86" class="st5" width="4.39" height="4.39"/>
	<rect x="471.43" y="165.39" class="st5" width="4.39" height="4.39"/>
	<rect x="471.43" y="173.65" class="st5" width="4.39" height="4.39"/>
	<rect x="471.43" y="181.72" class="st5" width="4.39" height="4.39"/>
	<rect x="487.77" y="190.69" class="st5" width="35.83" height="2.69"/>
	<rect x="487.77" y="198.59" class="st5" width="55.34" height="2.69"/>
	<rect x="488.34" y="206.12" class="st5" width="45.1" height="2.69"/>
	<rect x="487.77" y="214.39" class="st5" width="26.33" height="2.69"/>
	<rect x="487.77" y="222.46" class="st5" width="39.73" height="2.69"/>
	<rect x="471.43" y="189.84" class="st5" width="4.39" height="4.39"/>
	<rect x="471.43" y="197.75" class="st5" width="4.39" height="4.39"/>
	<rect x="471.43" y="205.28" class="st5" width="4.39" height="4.39"/>
	<rect x="471.43" y="213.54" class="st5" width="4.39" height="4.39"/>
	<rect x="471.43" y="221.61" class="st5" width="4.39" height="4.39"/>
	<rect x="374.4" y="211.81" class="st5" width="35.83" height="2.69"/>
	<rect x="369.61" y="218.81" class="st5" width="45.1" height="2.69"/>
	<path class="st5" d="M415.61,177.84c0,12.93-10.49,23.4-23.42,23.4c-3.87,0-7.67-0.96-11.08-2.79l0,0
		c-11.38-6.13-15.63-20.32-9.5-31.7c6.13-11.38,20.32-15.63,31.7-9.5C410.89,161.32,415.61,169.23,415.61,177.84z"/>
	<circle class="st2" cx="392.33" cy="170.34" r="6.36"/>
	<path class="st2" d="M403.19,189.84c-7.11,2.5-14.86,2.47-21.96-0.09l0,0l4.74-9.35h12.72L403.19,189.84z"/>
	<path class="st7" d="M321.91,235.92c-11.09,0-20.11-9.58-20.11-21.36c0-11.78,9.02-21.36,20.11-21.36
		c11.09,0,20.11,9.58,20.11,21.36C342.02,226.34,333,235.92,321.91,235.92z M321.91,198.6c-8.11,0-14.71,7.16-14.71,15.96
		s6.6,15.96,14.71,15.96s14.71-7.16,14.71-15.96S330.02,198.6,321.91,198.6z"/>
	<path class="st12" d="M340.95,273.14h-38.08c-6.99-0.01-12.66-5.67-12.67-12.67v-37.35c0.01-4.79,3.88-8.67,8.67-8.67h46.07
		c4.79,0.01,8.67,3.88,8.67,8.67v37.35C353.61,267.46,347.94,273.13,340.95,273.14z"/>
	<path class="st2" d="M329.33,235.7c0-4.1-3.32-7.42-7.41-7.43c-4.1,0-7.42,3.32-7.43,7.41c0,2.79,1.56,5.35,4.05,6.62v11.61h6.75
		V242.3C327.77,241.04,329.33,238.49,329.33,235.7z"/>
	<path class="st12" d="M340.68,370.36H105.5c-0.34,0-0.62-0.28-0.62-0.62c0-0.34,0.28-0.62,0.62-0.62h235.18
		c0.34,0,0.62,0.28,0.62,0.62C341.3,370.08,341.02,370.36,340.68,370.36z"/>
</g>
</svg>
