<?xml version="1.0" encoding="utf-8"?>
<!-- Generator: Adobe Illustrator 24.0.2, SVG Export Plug-In . SVG Version: 6.00 Build 0)  -->
<svg version="1.1" id="Layer_1" xmlns="http://www.w3.org/2000/svg" xmlns:xlink="http://www.w3.org/1999/xlink" x="0px" y="0px"
	 viewBox="0 0 1460 430" style="enable-background:new 0 0 1460 430;" xml:space="preserve">
<style type="text/css">
	.st0{fill:#FFDF6C;}
	.st1{fill:none;}
	.st2{font-family:'Pretendard-SemiBold-KSCpc-EUC-H';}
	.st3{font-size:42px;}
	.st4{opacity:0.1;fill:#6C81FF;enable-background:new    ;}
	.st5{fill:none;stroke:#535461;stroke-width:2;stroke-miterlimit:10;}
	.st6{fill:#6C81FF;}
	.st7{opacity:0.25;enable-background:new    ;}
	.st8{opacity:0.5;fill:#FFFFFF;enable-background:new    ;}
	.st9{opacity:0.6;}
	.st10{fill:#D6DBE6;}
	.st11{opacity:0.05;enable-background:new    ;}
	.st12{opacity:0.1;enable-background:new    ;}
	.st13{fill:#FFD865;}
	.st14{fill:#565387;}
	.st15{opacity:0.35;fill:#FFD865;enable-background:new    ;}
	.st16{fill:url(#SVGID_1_);}
	.st17{fill:#F0898B;}
	.st18{fill:#FFDF9C;}
	.st19{opacity:0.03;enable-background:new    ;}
	.st20{fill:#FEC2BE;}
	.st21{fill:#AF637C;}
	.st22{fill:#4C4981;}
	.st23{fill:none;stroke:#535461;stroke-miterlimit:10;}
	.st24{fill:#FFB7B7;}
	.st25{fill:#2F2E41;}
	.st26{fill:#CBCBCB;}
	.st27{fill:#FFFFFF;}
	.st28{fill:#3F3D56;}
	.st29{opacity:0.2;enable-background:new    ;}
	.st30{fill:#E5E5E5;}
	.st31{fill:#E6E6E6;}
	.st32{fill:#F2F2F2;}
	.st33{fill:#FFB8B8;}
	.st34{fill:#FF6584;}
</style>
<rect x="-0.13" y="-1.03" class="st0" width="1460.13" height="430"/>
<rect x="99.88" y="167" class="st1" width="597.96" height="93.93"/>
<text transform="matrix(1 0 0 1 99.8752 196.6986)"><tspan x="0" y="0" class="st2 st3">추석 관련 클래스 참여 시,</tspan><tspan x="0" y="60" class="st2 st3">포도알 2개 증정 !</tspan></text>
<g>
	<path class="st4" d="M1178.92-271.16c-14.74,18.75-9.02,46.14,0.35,68.07c3.14,7.34,6.69,15.1,5.37,22.97
		c-1.62,9.63-10.19,16.68-19.24,20.39c-16.45,6.8-36.14,5.18-51.25-4.22c-13.06-8.13-22.42-21.34-35.7-29.1
		c-22.24-12.97-50.53-8.08-74.67,0.86c-17.08,6.32-35.75,14.55-52.72,7.94c-11.94-4.63-20.2-15.97-24.7-27.97
		c-2.17-5.8-3.75-12.05-7.88-16.68c-2.47-2.73-5.68-4.67-8.98-6.3c-30.12-14.92-68.11-6.95-97.34-23.48
		c-19.74-11.18-32.38-32.26-37.99-54.25c-5.61-21.99-4.94-45.04-3.52-67.68c1.01-16.09,2.82-33.27,13.1-45.69
		c10.87-13.08,29.54-17.97,46.43-15.47c16.89,2.5,32.17,11.4,45.62,21.88c16.81,13.1,32.41,29.41,53.05,34.72
		c14.06,3.61,28.85,1.64,43.35,0.95c24.24-1.14,48.49,1.39,72.6,4.17c23.08,2.67,46.33,5.61,68.31,13.11
		c15.56,5.31,28.03,14.96,42.73,21.69c9.58,4.39,20.02,5.61,29.08,11.2c11.17,6.89,21.41,18.88,18.53,32.9
		C1200.73-287.8,1186.76-281.13,1178.92-271.16z"/>
	<path class="st4" d="M803.91-117.77c3.3,1.7,6.76,3.17,10.17,4.63c12.6,5.32,25.39,10.68,38.92,12.51
		c25.4,3.42,51.64-5.85,76.61-0.08c20.92,4.83,38.22,19.62,58.66,26.21c9.5,3.06,19.39,4.26,29.37,4.26h1.29
		c1.24-0.02,2.46-0.05,3.68-0.09c10.11-0.38,20.27-1.88,30.19-3.79c31.31-6.02,63.17-17.07,87.11-37.39
		C1070.22-124.26,926.65-143.8,803.91-117.77z"/>
	<path class="st5" d="M820.98-119.12c0,0,11.43-38.81-2.15-67.38c-5.7-11.99-7.59-25.45-4.96-38.46c1.26-6.18,3.08-12.23,5.44-18.07
		"/>
	<path class="st6" d="M810.88-261.06c0,4.76,8.61,18.53,8.61,18.53s8.61-13.79,8.61-18.53c-0.11-4.76-4.06-8.52-8.81-8.41
		C814.7-269.36,810.99-265.66,810.88-261.06L810.88-261.06z"/>
	<path class="st6" d="M796.64-234.71c2.59,3.99,17.31,10.89,17.31,10.89s-0.27-16.26-2.85-20.25c-2.48-4.06-7.79-5.33-11.84-2.85
		c-4.06,2.48-5.33,7.79-2.85,11.84C796.48-234.96,796.56-234.83,796.64-234.71L796.64-234.71z"/>
	<path class="st6" d="M797.28-189.69c4.25,2.14,20.44,0.66,20.44,0.66s-8.44-13.9-12.69-16.04c-4.19-2.25-9.41-0.67-11.66,3.52
		s-0.67,9.41,3.52,11.66C797.02-189.81,797.15-189.75,797.28-189.69z"/>
	<path class="st6" d="M805.41-155.73c3.82,2.83,20.04,4.11,20.04,4.11s-5.97-15.12-9.79-17.95c-3.85-2.8-9.23-1.95-12.03,1.9
		C800.86-163.88,801.65-158.56,805.41-155.73z"/>
	<path class="st6" d="M832.03-222.9c-3.41,3.31-19.31,6.75-19.31,6.75s3.89-15.79,7.3-19.1c3.41-3.32,8.87-3.24,12.18,0.18
		C835.53-231.67,835.45-226.21,832.03-222.9L832.03-222.9z"/>
	<path class="st6" d="M841.06-183.06c-4.25,2.14-20.44,0.66-20.44,0.66s8.44-13.9,12.69-16.04c4.29-2.06,9.43-0.25,11.49,4.04
		C846.8-190.23,845.15-185.22,841.06-183.06L841.06-183.06z"/>
	<path class="st6" d="M844.51-143.14c-3.82,2.83-20.04,4.11-20.04,4.11s5.97-15.12,9.79-17.95c3.85-2.8,9.23-1.95,12.03,1.9
		C849.06-151.29,848.27-145.97,844.51-143.14L844.51-143.14z"/>
	<path class="st7" d="M810.88-261.06c0,4.76,8.61,18.53,8.61,18.53s8.61-13.79,8.61-18.53c-0.11-4.76-4.06-8.52-8.81-8.41
		C814.7-269.36,810.99-265.66,810.88-261.06L810.88-261.06z"/>
	<path class="st7" d="M796.64-234.71c2.59,3.99,17.31,10.89,17.31,10.89s-0.27-16.26-2.85-20.25c-2.48-4.06-7.79-5.33-11.84-2.85
		c-4.06,2.48-5.33,7.79-2.85,11.84C796.48-234.96,796.56-234.83,796.64-234.71L796.64-234.71z"/>
	<path class="st7" d="M797.28-189.69c4.25,2.14,20.44,0.66,20.44,0.66s-8.44-13.9-12.69-16.04c-4.19-2.25-9.41-0.67-11.66,3.52
		s-0.67,9.41,3.52,11.66C797.02-189.81,797.15-189.75,797.28-189.69z"/>
	<path class="st7" d="M805.41-155.73c3.82,2.83,20.04,4.11,20.04,4.11s-5.97-15.12-9.79-17.95c-3.85-2.8-9.23-1.95-12.03,1.9
		C800.86-163.88,801.65-158.56,805.41-155.73z"/>
	<path class="st7" d="M832.03-222.9c-3.41,3.31-19.31,6.75-19.31,6.75s3.89-15.79,7.3-19.1c3.41-3.32,8.87-3.24,12.18,0.18
		C835.53-231.67,835.45-226.21,832.03-222.9L832.03-222.9z"/>
	<path class="st7" d="M841.06-183.06c-4.25,2.14-20.44,0.66-20.44,0.66s8.44-13.9,12.69-16.04c4.29-2.06,9.43-0.25,11.49,4.04
		C846.8-190.23,845.15-185.22,841.06-183.06L841.06-183.06z"/>
	<path class="st7" d="M844.51-143.14c-3.82,2.83-20.04,4.11-20.04,4.11s5.97-15.12,9.79-17.95c3.85-2.8,9.23-1.95,12.03,1.9
		C849.06-151.29,848.27-145.97,844.51-143.14L844.51-143.14z"/>
	<path class="st5" d="M879.96-130.94c0,0,6.19-21.01-1.16-36.47c-3.12-6.47-4.06-13.77-2.68-20.82c0.68-3.34,1.67-6.61,2.95-9.77"/>
	<path class="st6" d="M874.5-207.79c0,2.58,4.66,10.04,4.66,10.04s4.66-7.47,4.66-10.04c0-2.58-2.09-4.66-4.66-4.66
		C876.58-212.45,874.49-210.36,874.5-207.79L874.5-207.79L874.5-207.79z"/>
	<path class="st6" d="M866.79-193.52c1.39,2.16,9.37,5.89,9.37,5.89s-0.14-8.8-1.54-10.96c-1.4-2.16-4.29-2.78-6.45-1.38
		C866-198.57,865.39-195.69,866.79-193.52z"/>
	<path class="st6" d="M867.12-169.15c2.32,1.16,11.06,0.36,11.06,0.36s-4.57-7.52-6.87-8.68c-2.3-1.16-5.11-0.23-6.27,2.07
		c-1.16,2.3-0.23,5.11,2.07,6.27l0,0V-169.15z"/>
	<path class="st6" d="M871.53-150.76c2.07,1.53,10.85,2.22,10.85,2.22s-3.24-8.19-5.3-9.73c-2.07-1.54-4.99-1.1-6.53,0.97
		c-1.54,2.07-1.1,4.99,0.97,6.53L871.53-150.76z"/>
	<path class="st6" d="M885.95-187.13c-1.85,1.79-10.45,3.65-10.45,3.65s2.11-8.55,3.95-10.34c1.8-1.84,4.75-1.88,6.59-0.08
		s1.88,4.75,0.08,6.59c-0.06,0.06-0.12,0.12-0.18,0.18H885.95z"/>
	<path class="st6" d="M890.83-165.56c-2.32,1.16-11.06,0.36-11.06,0.36s4.57-7.52,6.87-8.68c2.3-1.16,5.11-0.23,6.27,2.07
		c1.16,2.3,0.23,5.11-2.07,6.27l0,0V-165.56z"/>
	<path class="st6" d="M892.7-143.95c-2.07,1.53-10.85,2.22-10.85,2.22s3.24-8.19,5.3-9.73c2.07-1.54,4.99-1.1,6.53,0.97
		c1.54,2.07,1.1,4.99-0.97,6.53L892.7-143.95z"/>
	<path class="st8" d="M874.5-207.79c0,2.58,4.66,10.04,4.66,10.04s4.66-7.47,4.66-10.04c0-2.58-2.09-4.66-4.66-4.66
		C876.58-212.45,874.49-210.36,874.5-207.79L874.5-207.79L874.5-207.79z"/>
	<path class="st8" d="M866.79-193.52c1.39,2.16,9.37,5.89,9.37,5.89s-0.14-8.8-1.54-10.96c-1.4-2.16-4.29-2.78-6.45-1.38
		C866-198.57,865.39-195.69,866.79-193.52z"/>
	<path class="st8" d="M867.12-169.15c2.32,1.16,11.06,0.36,11.06,0.36s-4.57-7.52-6.87-8.68c-2.3-1.16-5.11-0.23-6.27,2.07
		c-1.16,2.3-0.23,5.11,2.07,6.27l0,0V-169.15z"/>
	<path class="st8" d="M871.53-150.76c2.07,1.53,10.85,2.22,10.85,2.22s-3.24-8.19-5.3-9.73c-2.07-1.54-4.99-1.1-6.53,0.97
		c-1.54,2.07-1.1,4.99,0.97,6.53L871.53-150.76z"/>
	<path class="st8" d="M885.95-187.13c-1.85,1.79-10.45,3.65-10.45,3.65s2.11-8.55,3.95-10.34c1.8-1.84,4.75-1.88,6.59-0.08
		s1.88,4.75,0.08,6.59c-0.06,0.06-0.12,0.12-0.18,0.18H885.95z"/>
	<path class="st8" d="M890.83-165.56c-2.32,1.16-11.06,0.36-11.06,0.36s4.57-7.52,6.87-8.68c2.3-1.16,5.11-0.23,6.27,2.07
		c1.16,2.3,0.23,5.11-2.07,6.27l0,0V-165.56z"/>
	<path class="st8" d="M892.7-143.95c-2.07,1.53-10.85,2.22-10.85,2.22s3.24-8.19,5.3-9.73c2.07-1.54,4.99-1.1,6.53,0.97
		c1.54,2.07,1.1,4.99-0.97,6.53L892.7-143.95z"/>
	<g class="st9">
		<path class="st10" d="M866.63-420.54c-1.41,1.16-2.15,2.95-1.95,4.77c0.63,5.89,2.54,19.3,7.3,26.85
			c0.28,0.45,0.57,0.88,0.88,1.28h25.72c0,0,5.25-19.51,5.59-28.11c0.08-2.01-0.77-3.94-2.32-5.24c-3.86-3.2-12.9-10.19-18.04-9.73
			h-0.1C883.72-430.72,881.74-432.93,866.63-420.54z"/>
		<path class="st1" d="M864.68-415.77c0.63,5.89,2.54,19.3,7.3,26.85c1.02,0.46,2.07,0.88,3.11,1.28c6.49,2.53,12.62,4.03,11.63,0
			c-0.23-0.8-0.56-1.56-0.99-2.27c-5.9-10.26-3.17-32.64-1.92-40.77h-0.1c0,0-1.96-2.23-17.07,10.16
			C865.22-419.37,864.49-417.59,864.68-415.77z"/>
		<path class="st11" d="M864.68-415.77c0.63,5.89,2.54,19.3,7.3,26.85c1.02,0.46,2.07,0.88,3.11,1.28c6.49,2.53,12.62,4.03,11.63,0
			c-0.23-0.8-0.56-1.56-0.99-2.27c-5.9-10.26-3.17-32.64-1.92-40.77h-0.1c0,0-1.96-2.23-17.07,10.16
			C865.22-419.37,864.49-417.59,864.68-415.77z"/>
		<path class="st10" d="M872.7-388.33c0,1.13,0.96,2.17,2.59,3.02c1.11,0.55,2.29,0.97,3.5,1.25c2.28,0.53,4.61,0.79,6.95,0.77
			c2.81,0.04,5.61-0.36,8.31-1.16c1.1-0.33,2.15-0.82,3.1-1.45c1.02-0.72,1.6-1.54,1.6-2.42c0-1.28-1.24-2.45-3.27-3.34
			c-0.33-0.15-0.68-0.28-1.05-0.41c-2.81-0.9-5.74-1.33-8.69-1.29c-4.13,0-7.81,0.75-10.19,1.91c-0.4,0.19-0.79,0.42-1.15,0.67
			C873.31-390.07,872.7-389.23,872.7-388.33z"/>
		<path class="st12" d="M872.43-388.33c0,1.13,0.96,2.17,2.59,3.02c1.11,0.55,2.29,0.97,3.5,1.25c2.28,0.53,4.61,0.79,6.95,0.77
			c2.81,0.04,5.61-0.36,8.31-1.16c1.1-0.33,2.15-0.82,3.1-1.45c1.02-0.72,1.6-1.54,1.6-2.42c0-1.28-1.24-2.45-3.27-3.34
			c-0.33-0.15-0.68-0.28-1.05-0.41c-2.81-0.9-5.74-1.33-8.69-1.29c-4.13,0-7.81,0.75-10.19,1.91c-0.4,0.19-0.79,0.42-1.15,0.67
			C873.03-390.07,872.43-389.23,872.43-388.33z"/>
		<path class="st13" d="M888.21-386.96c0.8-1.45,0.42-3.28-0.89-4.29c0,0-0.89-1.07-0.34-2.04c0,0-4.55,3-2.23,6.45L888.21-386.96z"
			/>
		<path class="st13" d="M887.1-386.86c0.36-0.66,0.19-1.48-0.4-1.93c-0.22-0.26-0.27-0.61-0.15-0.93c0,0-2.05,1.35-1,2.91
			L887.1-386.86z"/>
		<path class="st12" d="M887.1-386.86c0.36-0.66,0.19-1.48-0.4-1.93c-0.22-0.26-0.27-0.61-0.15-0.93c0,0-2.05,1.35-1,2.91
			L887.1-386.86z"/>
		<path class="st14" d="M875.29-385.32c1.11,0.55,2.29,0.97,3.5,1.25c3.71-0.86,14.36-3.63,16.68-7.6
			c-0.33-0.15-0.68-0.28-1.05-0.41C892.92-390.34,886.89-384.32,875.29-385.32z"/>
		<path class="st14" d="M874.37-390.8c1.39,2.51,14.36,5.3,19.66,6.34c1.1-0.33,2.15-0.82,3.1-1.45c-7.54-0.1-14.96-2.01-21.61-5.56
			C875.12-391.28,874.73-391.05,874.37-390.8z"/>
		<path class="st15" d="M890.88-420.74c0.76,0.75,0.55,1.99,0.46,3.06c-0.15,1.99,0.36,3.98,1.45,5.66
			c0.68,1.03,1.61,2.09,1.44,3.31s-1.44,2.04-2.12,3.12c-0.68,1.08-0.73,2.53-0.53,3.83c0.2,1.3,0.6,2.57,0.7,3.88
			c0.05,0.3,0.01,0.61-0.1,0.89c-0.17,0.28-0.38,0.51-0.64,0.7c-0.43,0.38-0.79,0.84-1.06,1.34c-0.13,0.31-0.32,0.6-0.54,0.85
			c-0.19,0.17-0.41,0.3-0.65,0.39c-1.74,0.73-3.74,0.6-5.53,0.03c-1.77-0.65-3.46-1.5-5.03-2.54c-0.45-0.23-0.84-0.55-1.18-0.93
			c-0.38-0.56-0.57-1.23-0.57-1.9c-0.07-1.45,0.2-2.91,0.03-4.36c-0.17-1.45-0.84-2.9-1.26-4.36c-0.78-2.77-0.67-5.73,0.32-8.43
			c0.36-1.14,1.03-2.15,1.94-2.92c2.02-1.54,4.96-0.93,7.3-1.9C887.08-421.75,889.28-422.32,890.88-420.74z"/>
	</g>
	<g class="st9">
		<path class="st10" d="M826.87-350.92c-0.82,0.67-1.24,1.71-1.13,2.76c0.37,3.41,1.47,11.16,4.22,15.52
			c0.16,0.26,0.33,0.51,0.51,0.74h14.87c0,0,3.03-11.28,3.24-16.25c0.05-1.16-0.45-2.28-1.35-3.03c-2.23-1.85-7.46-5.88-10.43-5.62
			h-0.06C836.75-356.79,835.61-358.08,826.87-350.92z"/>
		<path class="st1" d="M825.74-348.16c0.37,3.41,1.47,11.16,4.22,15.52c0.59,0.25,1.2,0.51,1.8,0.74c3.74,1.46,7.29,2.32,6.72,0
			c-0.13-0.46-0.32-0.9-0.57-1.31c-3.41-5.93-1.85-18.87-1.11-23.58h-0.06c0,0-1.13-1.29-9.86,5.87
			C826.05-350.25,825.63-349.21,825.74-348.16z"/>
		<path class="st11" d="M825.74-348.16c0.37,3.41,1.47,11.16,4.22,15.52c0.59,0.25,1.2,0.51,1.8,0.74c3.74,1.46,7.29,2.32,6.72,0
			c-0.13-0.46-0.32-0.9-0.57-1.31c-3.41-5.93-1.85-18.87-1.11-23.58h-0.06c0,0-1.13-1.29-9.86,5.87
			C826.05-350.25,825.63-349.21,825.74-348.16z"/>
		<path class="st10" d="M830.38-332.3c0,0.65,0.56,1.26,1.5,1.74c0.64,0.32,1.32,0.56,2.02,0.72c1.31,0.31,2.66,0.47,4,0.46
			c1.62,0.01,3.24-0.22,4.79-0.69c0.64-0.19,1.24-0.48,1.8-0.84c0.52-0.28,0.86-0.8,0.93-1.39c0-0.74-0.71-1.42-1.89-1.93
			c-0.19-0.08-0.39-0.16-0.61-0.24c-1.62-0.52-3.32-0.77-5.03-0.75c-2.39,0-4.52,0.43-5.89,1.1c-0.23,0.11-0.45,0.24-0.67,0.38
			C830.8-333.43,830.45-332.9,830.38-332.3z"/>
		<path class="st12" d="M830.22-332.3c0,0.65,0.56,1.26,1.5,1.74c0.64,0.32,1.32,0.56,2.02,0.72c1.31,0.31,2.66,0.47,4,0.46
			c1.62,0.02,3.24-0.21,4.8-0.67c0.64-0.19,1.24-0.48,1.8-0.84c0.52-0.28,0.86-0.8,0.93-1.39c0-0.74-0.71-1.42-1.89-1.93
			c-0.19-0.08-0.39-0.16-0.61-0.24c-1.62-0.52-3.32-0.77-5.03-0.75c-2.39,0-4.52,0.43-5.89,1.1c-0.23,0.11-0.45,0.24-0.67,0.38
			C830.65-333.42,830.3-332.9,830.22-332.3z"/>
		<path class="st13" d="M839.35-331.51c0.46-0.84,0.25-1.89-0.51-2.48c-0.28-0.33-0.36-0.78-0.2-1.18c0,0-2.63,1.74-1.29,3.73
			L839.35-331.51z"/>
		<path class="st13" d="M838.7-331.45c0.21-0.38,0.11-0.85-0.23-1.12c-0.13-0.15-0.16-0.35-0.09-0.53c0,0-1.18,0.78-0.58,1.68
			L838.7-331.45z"/>
		<path class="st12" d="M838.7-331.45c0.21-0.38,0.11-0.85-0.23-1.12c-0.13-0.15-0.16-0.35-0.09-0.53c0,0-1.18,0.78-0.58,1.68
			L838.7-331.45z"/>
		<path class="st14" d="M831.88-330.55c0.64,0.32,1.32,0.56,2.02,0.72c2.15-0.5,8.3-2.1,9.64-4.4c-0.19-0.08-0.39-0.16-0.61-0.24
			C842.07-333.46,838.59-329.98,831.88-330.55z"/>
		<path class="st14" d="M831.34-333.72c0.8,1.45,8.31,3.06,11.37,3.67c0.64-0.19,1.24-0.48,1.8-0.84
			c-4.37-0.05-8.66-1.15-12.51-3.21C831.77-334,831.55-333.87,831.34-333.72z"/>
		<path class="st15" d="M840.89-351.03c0.46,0.43,0.32,1.15,0.27,1.77c-0.09,1.15,0.21,2.3,0.84,3.27c0.39,0.6,0.93,1.21,0.83,1.91
			c-0.09,0.7-0.83,1.18-1.22,1.81c-0.36,0.68-0.47,1.46-0.31,2.21c0.12,0.75,0.35,1.49,0.41,2.24c0.03,0.17,0.01,0.35-0.06,0.51
			c-0.1,0.16-0.22,0.3-0.37,0.41c-0.25,0.22-0.45,0.49-0.61,0.78c-0.08,0.18-0.18,0.34-0.31,0.49c-0.11,0.1-0.24,0.18-0.38,0.23
			c-1.03,0.38-2.17,0.38-3.2,0c-1.02-0.37-2-0.87-2.91-1.47c-0.26-0.14-0.49-0.32-0.68-0.54c-0.22-0.32-0.33-0.71-0.33-1.1
			c-0.04-0.84,0.12-1.68,0-2.52c-0.18-0.86-0.42-1.7-0.73-2.52c-0.45-1.6-0.39-3.31,0.19-4.87c0.21-0.66,0.6-1.24,1.12-1.69
			c1.17-0.89,2.87-0.53,4.22-1.1C838.69-351.61,839.96-351.95,840.89-351.03z"/>
	</g>
	<g class="st9">
		<path class="st10" d="M1063.18-359.86c-0.82,0.67-1.24,1.71-1.13,2.76c0.37,3.41,1.47,11.16,4.22,15.52
			c0.16,0.26,0.33,0.51,0.51,0.74h14.87c0,0,3.03-11.28,3.24-16.25c0.05-1.16-0.45-2.28-1.35-3.03c-2.23-1.85-7.46-5.88-10.43-5.62
			h-0.06C1073.05-365.73,1071.91-367.02,1063.18-359.86z"/>
		<path class="st1" d="M1062.05-357.12c0.37,3.41,1.47,11.16,4.22,15.52c0.59,0.25,1.2,0.51,1.8,0.74c3.74,1.46,7.29,2.32,6.72,0
			c-0.13-0.46-0.32-0.9-0.57-1.31c-3.41-5.93-1.85-18.87-1.11-23.58h-0.06c0,0-1.13-1.29-9.86,5.87
			C1062.36-359.21,1061.94-358.17,1062.05-357.12z"/>
		<path class="st11" d="M1062.05-357.12c0.37,3.41,1.47,11.16,4.22,15.52c0.59,0.25,1.2,0.51,1.8,0.74c3.74,1.46,7.29,2.32,6.72,0
			c-0.13-0.46-0.32-0.9-0.57-1.31c-3.41-5.93-1.85-18.87-1.11-23.58h-0.06c0,0-1.13-1.29-9.86,5.87
			C1062.36-359.21,1061.94-358.17,1062.05-357.12z"/>
		<path class="st10" d="M1066.69-341.24c0,0.65,0.56,1.26,1.5,1.74c0.64,0.32,1.32,0.56,2.02,0.72c1.31,0.31,2.66,0.47,4,0.46
			c1.62,0.01,3.24-0.22,4.79-0.69c0.64-0.19,1.24-0.48,1.8-0.84c0.52-0.28,0.86-0.8,0.93-1.39c0-0.74-0.71-1.42-1.89-1.93
			c-0.19-0.08-0.39-0.16-0.61-0.24c-1.62-0.52-3.31-0.77-5.01-0.75c-2.39,0-4.52,0.43-5.89,1.1c-0.23,0.11-0.45,0.24-0.67,0.38
			C1067.12-342.37,1066.76-341.85,1066.69-341.24z"/>
		<path class="st12" d="M1066.53-341.24c0,0.65,0.56,1.26,1.5,1.74c0.64,0.32,1.32,0.56,2.02,0.72c1.31,0.31,2.66,0.47,4,0.46
			c1.62,0.02,3.24-0.21,4.8-0.67c0.64-0.19,1.24-0.48,1.8-0.84c0.52-0.28,0.86-0.8,0.93-1.39c0-0.74-0.71-1.42-1.89-1.93
			c-0.19-0.08-0.39-0.16-0.61-0.24c-1.62-0.52-3.32-0.78-5.02-0.76c-2.39,0-4.52,0.43-5.89,1.1c-0.23,0.11-0.45,0.24-0.67,0.38
			C1066.96-342.37,1066.6-341.85,1066.53-341.24z"/>
		<path class="st13" d="M1075.65-340.44c0.47-0.84,0.25-1.89-0.51-2.48c-0.28-0.33-0.36-0.78-0.2-1.18c0,0-2.63,1.74-1.29,3.73
			L1075.65-340.44z"/>
		<path class="st13" d="M1075.01-340.39c0.21-0.38,0.11-0.85-0.23-1.12c-0.13-0.15-0.16-0.35-0.09-0.53c0,0-1.18,0.78-0.58,1.68
			L1075.01-340.39z"/>
		<path class="st12" d="M1075.01-340.39c0.21-0.38,0.11-0.85-0.23-1.12c-0.13-0.15-0.16-0.35-0.09-0.53c0,0-1.18,0.78-0.58,1.68
			L1075.01-340.39z"/>
		<path class="st14" d="M1068.18-339.52c0.64,0.32,1.32,0.56,2.02,0.72c2.15-0.5,8.3-2.1,9.64-4.4c-0.19-0.08-0.39-0.16-0.61-0.24
			C1078.38-342.4,1074.89-338.93,1068.18-339.52z"/>
		<path class="st14" d="M1067.65-342.67c0.8,1.45,8.31,3.06,11.37,3.67c0.64-0.19,1.24-0.48,1.8-0.84
			c-4.37-0.05-8.66-1.15-12.51-3.21C1068.08-342.95,1067.86-342.82,1067.65-342.67z"/>
		<path class="st15" d="M1077.2-359.98c0.46,0.43,0.32,1.15,0.27,1.77c-0.09,1.15,0.21,2.3,0.84,3.27c0.39,0.6,0.93,1.21,0.83,1.91
			s-0.83,1.18-1.22,1.81c-0.36,0.68-0.47,1.46-0.31,2.21c0.12,0.75,0.35,1.49,0.41,2.24c0.03,0.17,0.01,0.35-0.06,0.51
			c-0.1,0.16-0.22,0.3-0.37,0.41c-0.25,0.22-0.45,0.49-0.61,0.78c-0.08,0.18-0.18,0.34-0.31,0.49c-0.11,0.1-0.24,0.18-0.38,0.23
			c-1.03,0.38-2.17,0.38-3.2,0c-1.02-0.37-2-0.87-2.91-1.47c-0.26-0.14-0.49-0.32-0.68-0.54c-0.22-0.32-0.33-0.71-0.33-1.1
			c-0.04-0.84,0.12-1.68,0-2.52c-0.18-0.86-0.42-1.7-0.73-2.52c-0.45-1.6-0.39-3.31,0.19-4.87c0.21-0.66,0.6-1.24,1.12-1.69
			c1.17-0.89,2.87-0.53,4.22-1.1C1075-360.56,1076.27-360.89,1077.2-359.98z"/>
	</g>
	<g class="st9">
		<path class="st10" d="M1104.33-435.37c-1.41,1.16-2.15,2.95-1.95,4.77c0.63,5.89,2.54,19.3,7.3,26.85
			c0.28,0.45,0.57,0.88,0.88,1.28h25.72c0,0,5.25-19.52,5.59-28.11c0.08-2.01-0.77-3.94-2.32-5.24c-3.85-3.2-12.9-10.19-18.04-9.73
			h-0.1C1121.41-445.55,1119.44-447.76,1104.33-435.37z"/>
		<path class="st1" d="M1102.38-430.6c0.63,5.89,2.54,19.3,7.3,26.85c1.02,0.46,2.07,0.88,3.11,1.28c6.49,2.53,12.62,4.03,11.63,0
			c-0.23-0.8-0.56-1.56-0.99-2.27c-5.9-10.26-3.17-32.64-1.92-40.77h-0.1c0,0-1.96-2.23-17.07,10.16
			C1102.92-434.2,1102.19-432.41,1102.38-430.6z"/>
		<path class="st11" d="M1102.38-430.6c0.63,5.89,2.54,19.3,7.3,26.85c1.02,0.46,2.07,0.88,3.11,1.28c6.49,2.53,12.62,4.03,11.63,0
			c-0.23-0.8-0.56-1.56-0.99-2.27c-5.9-10.26-3.17-32.64-1.92-40.77h-0.1c0,0-1.96-2.23-17.07,10.16
			C1102.92-434.2,1102.19-432.41,1102.38-430.6z"/>
		<path class="st10" d="M1110.4-403.16c0,1.13,0.96,2.17,2.59,3.02c1.11,0.55,2.29,0.97,3.5,1.25c2.28,0.53,4.61,0.79,6.95,0.77
			c2.81,0.04,5.61-0.36,8.31-1.16c1.1-0.33,2.15-0.82,3.1-1.45c1.02-0.72,1.6-1.54,1.6-2.42c0-1.28-1.24-2.45-3.27-3.34
			c-0.33-0.15-0.68-0.28-1.05-0.41c-2.81-0.9-5.74-1.33-8.69-1.29c-4.13,0-7.81,0.75-10.19,1.91c-0.4,0.19-0.79,0.42-1.15,0.67
			C1111.01-404.89,1110.4-404.05,1110.4-403.16z"/>
		<path class="st12" d="M1110.13-403.16c0,1.13,0.96,2.17,2.59,3.02c1.11,0.55,2.29,0.97,3.5,1.25c2.28,0.53,4.61,0.79,6.95,0.77
			c2.81,0.04,5.61-0.36,8.31-1.16c1.1-0.33,2.15-0.82,3.1-1.45c1.02-0.72,1.6-1.54,1.6-2.42c0-1.28-1.24-2.45-3.27-3.34
			c-0.33-0.15-0.68-0.28-1.05-0.41c-2.81-0.9-5.74-1.33-8.69-1.29c-4.13,0-7.81,0.75-10.19,1.91c-0.4,0.19-0.79,0.42-1.15,0.67
			C1110.73-404.89,1110.13-404.05,1110.13-403.16z"/>
		<path class="st13" d="M1125.9-401.79c0.8-1.45,0.42-3.28-0.89-4.29c0,0-0.89-1.07-0.34-2.04c0,0-4.55,3-2.23,6.45L1125.9-401.79z"
			/>
		<path class="st13" d="M1124.8-401.69c0.36-0.66,0.19-1.48-0.4-1.93c-0.22-0.26-0.27-0.61-0.15-0.93c0,0-2.05,1.35-1,2.91
			L1124.8-401.69z"/>
		<path class="st12" d="M1124.8-401.69c0.36-0.66,0.19-1.48-0.4-1.93c-0.22-0.26-0.27-0.61-0.15-0.93c0,0-2.05,1.35-1,2.91
			L1124.8-401.69z"/>
		<path class="st14" d="M1112.99-400.14c1.11,0.55,2.29,0.97,3.5,1.25c3.71-0.86,14.36-3.63,16.68-7.6
			c-0.33-0.15-0.68-0.28-1.05-0.41C1130.62-405.17,1124.59-399.15,1112.99-400.14z"/>
		<path class="st14" d="M1112.06-405.63c1.39,2.51,14.36,5.3,19.66,6.34c1.1-0.33,2.15-0.82,3.1-1.45
			c-7.54-0.1-14.96-2.01-21.61-5.56C1112.82-406.1,1112.43-405.88,1112.06-405.63z"/>
		<path class="st15" d="M1128.58-435.57c0.76,0.75,0.55,1.99,0.46,3.06c-0.15,1.99,0.36,3.98,1.45,5.66
			c0.68,1.03,1.61,2.09,1.44,3.31c-0.17,1.22-1.44,2.04-2.12,3.12c-0.68,1.08-0.73,2.53-0.53,3.83c0.2,1.3,0.6,2.57,0.7,3.88
			c0.05,0.3,0.01,0.61-0.1,0.89c-0.17,0.28-0.38,0.51-0.64,0.7c-0.43,0.38-0.79,0.84-1.06,1.34c-0.13,0.31-0.32,0.6-0.54,0.85
			c-0.19,0.17-0.41,0.3-0.65,0.39c-1.74,0.73-3.74,0.6-5.53,0.03c-1.77-0.65-3.46-1.5-5.03-2.54c-0.45-0.23-0.84-0.55-1.18-0.93
			c-0.38-0.56-0.57-1.23-0.57-1.9c-0.07-1.45,0.2-2.91,0.03-4.36c-0.17-1.45-0.84-2.9-1.26-4.36c-0.78-2.77-0.67-5.73,0.32-8.43
			c0.36-1.14,1.03-2.15,1.94-2.92c2.02-1.54,4.96-0.93,7.3-1.9C1124.77-436.58,1126.97-437.15,1128.58-435.57z"/>
	</g>
	<path class="st10" d="M973.62-397.5c-2.38,1.95-3.61,4.96-3.28,8.01c1.07,9.9,4.27,32.43,12.26,45.1c0.48,0.75,0.97,1.47,1.48,2.15
		h43.21c0,0,8.8-32.78,9.4-47.22c0.14-3.39-1.31-6.64-3.92-8.8c-6.49-5.38-21.68-17.1-30.3-16.32h-0.18
		C1002.29-414.59,999.01-418.31,973.62-397.5z"/>
	<path class="st1" d="M970.34-389.49c1.07,9.9,4.27,32.43,12.26,45.1c1.72,0.74,3.48,1.47,5.22,2.15c10.86,4.26,21.2,6.77,19.53,0
		c-0.38-1.34-0.94-2.62-1.66-3.8c-9.91-17.24-5.33-54.83-3.24-68.53h-0.18c0,0-3.29-3.75-28.67,17.06
		C971.22-395.56,970-392.54,970.34-389.49z"/>
	<path class="st11" d="M970.34-389.49c1.07,9.9,4.27,32.43,12.26,45.1c1.72,0.74,3.48,1.47,5.22,2.15c10.86,4.26,21.2,6.77,19.53,0
		c-0.38-1.34-0.94-2.62-1.66-3.8c-9.91-17.24-5.33-54.83-3.24-68.53h-0.18c0,0-3.29-3.75-28.67,17.06
		C971.22-395.56,970-392.54,970.34-389.49z"/>
	<path class="st10" d="M983.83-343.39c0,1.9,1.62,3.66,4.35,5.06c1.87,0.93,3.84,1.63,5.88,2.1c3.82,0.89,7.72,1.32,11.64,1.3
		c5.31,0,10.17-0.73,13.95-1.95c1.85-0.55,3.61-1.38,5.22-2.45c1.71-1.21,2.69-2.59,2.69-4.07c0-2.15-2.08-4.12-5.5-5.61
		c-0.55-0.24-1.14-0.47-1.76-0.69c-3.87-1.35-8.99-2.16-14.6-2.16c-6.95,0-13.13,1.25-17.14,3.21c-0.67,0.32-1.32,0.7-1.94,1.12
		C984.84-346.31,983.83-344.89,983.83-343.39z"/>
	<path class="st12" d="M983.36-343.39c0,1.9,1.62,3.66,4.35,5.06c1.87,0.93,3.84,1.63,5.88,2.1c3.82,0.89,7.72,1.32,11.64,1.3
		c5.31,0,10.17-0.73,13.95-1.95c1.85-0.55,3.61-1.38,5.22-2.45c1.71-1.21,2.69-2.59,2.69-4.07c0-2.15-2.08-4.12-5.5-5.61
		c-0.55-0.24-1.14-0.47-1.76-0.69c-3.87-1.35-8.99-2.16-14.6-2.16c-6.95,0-13.13,1.25-17.14,3.21c-0.67,0.32-1.32,0.7-1.94,1.12
		C984.37-346.31,983.36-344.89,983.36-343.39z"/>
	<path class="st13" d="M1009.87-341.09c0,0,2.34-3.87-1.5-7.21c0,0-1.49-1.8-0.58-3.43c0,0-7.64,5.04-3.74,10.84L1009.87-341.09z"/>
	<path class="st13" d="M1008.01-340.91c0.61-1.1,0.32-2.48-0.68-3.24c0,0-0.67-0.81-0.26-1.54c0,0-3.44,2.27-1.69,4.88
		L1008.01-340.91z"/>
	<path class="st12" d="M1008.01-340.91c0.61-1.1,0.32-2.48-0.68-3.24c0,0-0.67-0.81-0.26-1.54c0,0-3.44,2.27-1.69,4.88
		L1008.01-340.91z"/>
	<path class="st14" d="M988.18-338.33c1.87,0.93,3.84,1.63,5.88,2.1c6.23-1.45,24.09-6.1,28-12.77c-0.55-0.24-1.14-0.47-1.76-0.69
		C1017.79-346.76,1007.64-336.66,988.18-338.33z"/>
	<path class="st14" d="M986.62-347.53c2.32,4.21,24.14,8.9,33.02,10.66c1.85-0.55,3.61-1.38,5.22-2.45
		c-12.67-0.16-25.12-3.36-36.3-9.33C987.88-348.32,987.24-347.95,986.62-347.53z"/>
	<path class="st15" d="M1014.38-397.84c1.28,1.26,0.93,3.35,0.79,5.14c-0.25,3.35,0.61,6.69,2.44,9.5c1.14,1.74,2.71,3.51,2.42,5.56
		s-2.42,3.43-3.56,5.25c-1.14,1.82-1.23,4.24-0.9,6.43c0.33,2.19,1.01,4.32,1.19,6.52c0.08,0.5,0.02,1.02-0.17,1.5
		c-0.27,0.46-0.63,0.86-1.06,1.19c-0.72,0.64-1.32,1.41-1.78,2.26c-0.23,0.52-0.53,1-0.9,1.43c-0.32,0.29-0.69,0.51-1.09,0.66
		c-2.91,1.23-6.28,1.01-9.29,0.04s-5.75-2.62-8.45-4.27c-0.75-0.4-1.42-0.93-1.98-1.57c-0.63-0.95-0.97-2.06-0.95-3.2
		c-0.13-2.44,0.34-4.89,0.05-7.32c-0.31-2.53-1.41-4.87-2.11-7.32c-1.31-4.66-1.12-9.62,0.55-14.16c0.69-1.85,1.67-3.71,3.24-4.9
		c3.4-2.59,8.34-1.54,12.26-3.2C1007.97-399.52,1011.66-400.5,1014.38-397.84z"/>
	
		<linearGradient id="SVGID_1_" gradientUnits="userSpaceOnUse" x1="305.9164" y1="476.4389" x2="305.9164" y2="731.1256" gradientTransform="matrix(-1 0 0 -1 1330.63 387.13)">
		<stop  offset="0" style="stop-color:#808080;stop-opacity:0.25"/>
		<stop  offset="0.54" style="stop-color:#808080;stop-opacity:0.12"/>
		<stop  offset="1" style="stop-color:#808080;stop-opacity:0.1"/>
	</linearGradient>
	<path class="st16" d="M981.84-90.15c3.05,1.73,10.6,0.43,15.29-0.64c1.53-0.34,2.49-1.86,2.15-3.39c-0.08-0.35-0.22-0.68-0.42-0.97
		l-1.27-1.89l-0.49-0.07h0.44l4.78-20.51c2.78-9.27,1.23-16.35,0-21.9c-0.59-2.65,0.8-8.55,2.4-13.98c2.65,1.15,5.27,2.02,7.47,2.27
		c1.36,0.15,2.86,0.3,4.43,0.42c1.69,4.43,3.15,8.34,3.28,8.84c1.99,7.95,11.72,11.72,11.72,11.72l24.83,28.22
		c0,0-1.54,4.01-4.63,5.25c0,0-7.71,1.85-2.78,3.71c3.29,1.24,10.58-1.24,15.05-3.03c1.45-0.58,2.15-2.22,1.57-3.67
		c-0.13-0.32-0.32-0.62-0.56-0.88l-1.57-1.68h-0.14l-7.72-16.51c-0.93-4.63-9.56-17.58-14.83-20.05c-3.06-1.44-5.69-8.11-7.36-13.44
		c2.37-0.82,4.49-2.25,6.13-4.15c5.86-7.09,8.34-3.09,19.74-5.86c14.47-3.52,8.91-13.44,7.21-13.48
		c-7.72-3.54-27.8-22.09-29.87-23.99c0.38-0.19,0.6-0.32,0.6-0.32l-0.74,0.18l-0.03-0.03c-0.34-1.38-0.8-2.73-1.35-4.04
		c0.95,0.82,1.95,1.57,3,2.26c3.59,2.34,8.1,3.89,12.18,2.55l-0.1-0.11c0.24-0.06,0.46-0.13,0.71-0.2c-2.4-2.62-3.87-5.95-4.19-9.48
		c1.99-0.33,3.91-0.98,5.69-1.92c7.07-3.4,12.15-11.04,11.88-18.95c-0.1-3.02-0.88-6.09-0.18-9.03c0.65-2.72,1.31-3.82,1.82-6.57
		c1.54-8.34,3.09-6.78,1.7-13.04c-0.71-3.21-4.51-4.83-6.2-7.65c-2.48-4.12-2.56-9.18-3.24-13.94c-0.69-4.76-2.39-9.95-6.65-12.17
		c-6.08-3.17-10.3-10.9-16.37-9.98c-0.32,0.05-0.65,0.09-0.97,0.12c-2.3-1.28-4.92-1.87-7.55-1.68c-1.55,0.12-3.08,0.5-4.63,0.49
		c-1.7-0.01-3.37-0.49-4.81-1.39c-0.07,0.18-0.13,0.37-0.19,0.55c-0.14-0.08-0.29-0.16-0.43-0.25c-0.4,1.05-0.56,2.17-0.46,3.29
		c-2.4,0.59-4.56,1.91-6.18,3.77c-0.35-2.48-0.55-4.06-0.55-4.06l-0.62-30.53c0,0,7.09-12.05,0.31-12.05
		c-6.78,0-6.49,10.8-6.49,10.8l-1.85,23.44c-1.23,8.34,0,13.9,0,13.9c3.19,8.44,5.04,20.92,5.78,26.87
		c-9.35,7.08-11.96,13.34-11.86,18.53c-0.12,5.33,2.67,9.6,4.23,12.58c0.38,0.72,0.56,2.24,0.57,4.37
		c-0.12,17.61-9.98,71.66-9.98,71.66l0.1,0.04l-0.1,0.57l0.51,0.21c-0.59,1.85-1.23,3.71-1.9,5.5c-3.39,8.94,0,15.11,0,15.11
		l3.2,42.45L991.05-98c0,0-2.67,3.9-5.91,4.63C985.16-93.38,977.25-92.74,981.84-90.15z M1026.09-218.42l-0.03-0.03
		c-2.93-3.27-4.56-7.5-4.6-11.89c0.06-3.14,0.79-6.24,2.13-9.08c1.01-3.96,1.71-7.99,2.11-12.06c0.17,2.23,0.2,4.47,0.1,6.71
		C1025.44-235.94,1023.81-226.92,1026.09-218.42L1026.09-218.42z"/>
	<path class="st17" d="M1022.87-263.2c2.66,4.5,2.18,12.72-1.52,27.76c0,0-4.22,11.46,4.22,21.11c8.44,9.65,10.25,18.07,10.25,18.07
		s26.5,16.42,29.85,23.82c-4.98-11,11.36,4.75-7.54,9.35c-11.15,2.72-13.57-1.2-19.29,5.73c-5.73,6.93-18.69,6.02-26.83,5.12
		S990-162.79,990-162.79s15.37-64.82,12.05-71.15c-3.14-5.99-14.42-17.38,7.68-32.12C1014.13-268.98,1020.15-267.75,1022.87-263.2z"
		/>
	<path class="st18" d="M1022.87-263.2c2.66,4.5,2.18,12.72-1.52,27.76c0,0-4.22,11.46,4.22,21.11c8.44,9.65,10.25,18.07,10.25,18.07
		s26.68,16.35,29.85,23.82c-4.68-11,11.36,4.75-7.54,9.35c-11.15,2.72-13.57-1.2-19.29,5.73c-5.73,6.93-18.69,6.02-26.83,5.12
		S990-162.79,990-162.79s15.37-64.82,12.05-71.15c-3.14-5.99-14.42-17.38,7.68-32.12C1014.13-268.98,1020.15-267.75,1022.87-263.2z"
		/>
	<path class="st19" d="M1022.87-263.2c2.66,4.5,2.18,12.72-1.52,27.76c0,0-4.22,11.46,4.22,21.11c8.44,9.65,10.25,18.07,10.25,18.07
		s26.68,16.35,29.85,23.82c-4.68-11,11.36,4.75-7.54,9.35c-11.15,2.72-13.57-1.2-19.29,5.73c-5.73,6.93-18.69,6.02-26.83,5.12
		S990-162.79,990-162.79s15.37-64.82,12.05-71.15c-3.14-5.99-14.42-17.38,7.68-32.12C1014.13-268.98,1020.15-267.75,1022.87-263.2z"
		/>
	<path class="st20" d="M1031.01-160.06c0,0,3.92,17.49,9.04,19.9c5.12,2.41,13.57,15.07,14.47,19.6l7.69,16.44h-6.95l-24.27-27.59
		c0,0-9.51-3.71-11.46-11.46c-0.3-1.2-8.44-22.31-8.44-22.31L1031.01-160.06z"/>
	<path class="st20" d="M1008.39-165.49c0,0-7.24,19.29-6.02,24.72c1.21,5.43,2.72,12.36,0,21.41l-4.68,20.04l-6.02-0.3l-3.17-42.05
		c0,0-3.32-6.02,0-14.77c3.32-8.75,5.71-19.6,5.71-19.6L1008.39-165.49z"/>
	<path class="st20" d="M1006.89-264.08c0,0-1.81-18.39-6.02-29.55c0,0-1.2-5.43,0-13.57l1.81-22.91c0,0-0.3-10.55,6.33-10.55
		c6.63,0-0.3,11.76-0.3,11.76l0.6,29.85c0,0,3.92,30.45,6.63,33.77L1006.89-264.08z"/>
	<path class="st11" d="M1006.89-264.08c0,0-1.81-18.39-6.02-29.55c0,0-1.2-5.43,0-13.57l1.81-22.91c0,0-0.3-10.55,6.33-10.55
		c6.63,0-0.3,11.76-0.3,11.76l0.6,29.85c0,0,3.92,30.45,6.63,33.77L1006.89-264.08z"/>
	<path class="st20" d="M1008.39-285.77c0,0,1.2,14.47-2.41,19.29c0,0,8.44-4.52,15.68-0.6c0,0-4.52-12.36-3.02-17.79L1008.39-285.77
		z"/>
	<path class="st18" d="M1022.87-266.82c2.66,4.5,3.99,12.72,0.3,27.76c0,0-6.02,11.46,2.41,21.11c8.44,9.65,10.25,18.07,10.25,18.07
		s22.31,20.8,29.85,23.82c0,0,3.62,6.63-7.54,9.35s-13.57-1.2-19.29,5.73c-5.73,6.93-18.69,6.02-26.83,5.12
		c-8.14-0.9-22.16-6.78-22.16-6.78s12.51-68.58,9.2-74.92c-3.14-5.99-11.4-17.38,10.69-32.12
		C1014.13-272.6,1020.15-271.37,1022.87-266.82z"/>
	<circle class="st20" cx="1013.82" cy="-259.55" r="10.25"/>
	<path class="st12" d="M1017.44-255.33l2.11,31.66l-6.95,33.77c0,0,6.33,22.31,0,20.2c-6.33-2.11-6.63-20.5-6.63-20.5l4.22-35.27
		c0,0-5.12-26.53-4.22-31.97C1006.87-262.9,1017.44-255.33,1017.44-255.33z"/>
	<path class="st20" d="M1017.44-255.94l2.11,31.66l-6.95,33.77c0,0,6.33,22.31,0,20.2c-6.33-2.11-6.63-20.5-6.63-20.5l4.22-35.27
		c0,0-5.12-26.53-4.22-31.97C1006.87-263.5,1017.44-255.94,1017.44-255.94z"/>
	<path class="st19" d="M1018.8-275.99c-4.27,0-8.15-1.22-10.19-4.63c-0.03-2.66-0.19-4.58-0.19-4.58l10.25,0.93
		c-0.65,2.32-0.29,4.32,0.46,7.69C1018.91-276.58,1018.99-275.99,1018.8-275.99z"/>
	<circle class="st20" cx="1018.64" cy="-287.29" r="11.76"/>
	<path class="st19" d="M1005.83-241.92c0,0-0.93,4.52-6.78,4.98"/>
	<path class="st19" d="M1037.03-160.97c5.73-6.95,8.14-3.02,19.29-5.73c11.15-2.71,7.54-9.35,7.54-9.35
		c-7.54-3.02-29.85-23.82-29.85-23.82s-1.81-8.44-10.25-18.07c-8.44-9.63-2.41-21.11-2.41-21.11c3.71-15.04,2.37-23.26-0.3-27.76
		c-1.49-2.5-4.08-4.14-6.98-4.4c3.54-0.37,6.98,1.34,8.8,4.4c2.66,4.5,3.99,12.72,0.3,27.76c0,0-6.02,11.46,2.41,21.11
		c8.44,9.65,10.25,18.07,10.25,18.07s22.31,20.8,29.85,23.82c0,0,3.62,6.63-7.54,9.35c-11.16,2.72-13.57-1.2-19.29,5.73
		c-3.96,4.8-11.38,5.84-18.27,5.73C1026.92-155.34,1033.42-156.59,1037.03-160.97z"/>
	<path class="st12" d="M1014.38-273.65c0.38-0.84,1.19-1.39,1.8-2.09c1.99-2.26,1.64-5.64,1.76-8.65c0.12-2.87,0.76-5.7,1.9-8.34
		c-0.71-0.35-1.36-0.82-1.91-1.39c-1.97-2.09-2.56-5.12-1.54-7.81c1.42,0.87,3.04,1.33,4.7,1.33c1.52,0,3.02-0.37,4.54-0.46
		c2.57-0.18,5.13,0.39,7.38,1.64c0.32-0.03,0.63-0.07,0.93-0.12c5.94-0.9,10.06,6.66,16,9.75c4.17,2.17,5.85,7.24,6.49,11.89
		c0.63,4.65,0.73,9.6,3.15,13.63c1.66,2.75,5.37,4.34,6.07,7.48c1.36,6.12-0.15,4.61-1.65,12.75c-0.5,2.69-1.14,3.77-1.78,6.43
		c-0.69,2.87,0.07,5.87,0.18,8.8c0.33,9.69-7.57,18.97-17.19,20.19c0.28,3.54,1.75,6.88,4.17,9.49c-3.98,1.31-8.39-0.2-11.9-2.5
		c-5.69-3.75-9.85-9.42-11.73-15.98c-2.37-8.41-0.74-17.34-0.36-26.06c0.38-8.72-1-18.43-7.64-24.09
		C1015.84-269.35,1013.38-271.43,1014.38-273.65z"/>
	<path class="st21" d="M1014.98-273.95c0.38-0.84,1.19-1.39,1.8-2.09c1.99-2.26,1.64-5.64,1.76-8.65c0.12-2.87,0.76-5.7,1.9-8.34
		c-0.71-0.35-1.36-0.82-1.91-1.39c-1.97-2.09-2.56-5.12-1.54-7.81c1.41,0.88,3.04,1.35,4.71,1.36c1.52,0,3.02-0.37,4.54-0.46
		c2.56-0.19,5.12,0.37,7.37,1.61c0.32-0.03,0.63-0.07,0.93-0.12c5.94-0.9,10.06,6.66,16,9.75c4.17,2.17,5.85,7.24,6.49,11.89
		c0.63,4.65,0.73,9.6,3.15,13.63c1.66,2.75,5.37,4.34,6.07,7.48c1.36,6.12-0.15,4.61-1.65,12.75c-0.5,2.69-1.14,3.77-1.78,6.43
		c-0.69,2.87,0.07,5.87,0.18,8.8c0.33,9.69-7.57,18.97-17.19,20.19c0.27,3.53,1.72,6.87,4.12,9.48c-3.98,1.31-8.39-0.2-11.9-2.5
		c-5.7-3.75-9.87-9.43-11.75-15.99c-2.37-8.41-0.74-17.34-0.36-26.06c0.38-8.72-1-18.43-7.64-24.09
		C1016.45-269.65,1013.98-271.73,1014.98-273.95z"/>
	<path class="st22" d="M1055.28-104.13c0,0-1.51,3.92-4.52,5.12c0,0-7.54,1.81-2.72,3.62c3.24,1.21,10.34-1.21,14.72-2.96
		c1.42-0.59,2.09-2.21,1.51-3.63c-0.12-0.3-0.3-0.57-0.52-0.81l-1.53-1.64L1055.28-104.13z"/>
	<path class="st22" d="M991.36-100.22c0,0-2.61,3.81-5.77,4.54c0,0-7.73,0.62-3.24,3.15c2.98,1.69,10.36,0.42,14.96-0.63
		c1.5-0.34,2.44-1.83,2.1-3.32c-0.08-0.34-0.21-0.66-0.41-0.94l-1.25-1.85L991.36-100.22z"/>
	<path class="st19" d="M1036.58-200.01c0,0-6.95,3.92-14.77,3.62"/>
	<path class="st6" d="M1074.42-89.01c-1.08-1.01-2.09-2.19-2.41-3.63c-0.32-1.44,0.3-3.17,1.68-3.71c1.54-0.59,3.2,0.46,4.45,1.56
		c1.25,1.1,2.69,2.32,4.32,2.09c-1.71-1.55-2.49-3.89-2.03-6.16c0.07-0.46,0.27-0.89,0.57-1.25c0.86-0.93,2.41-0.52,3.44,0.2
		c3.24,2.32,4.17,6.73,4.19,10.73c0.33-1.44,0.05-2.94,0.06-4.42c0.01-1.48,0.41-3.11,1.66-3.91c0.78-0.42,1.66-0.62,2.55-0.59
		c1.47-0.06,3.1,0.09,4.11,1.17c1.25,1.33,0.93,3.57-0.16,5.04c-1.09,1.47-2.73,2.39-4.25,3.41c-1.22,0.73-2.25,1.71-3.03,2.9
		c-0.09,0.17-0.17,0.34-0.23,0.52h-9.22C1078.05-86.13,1076.13-87.45,1074.42-89.01z"/>
	<path class="st6" d="M1158.79-161.75c0,0,34.44,25.07-35.47,53.03c0,0-12.39-28.68,5.87-49.61c7.34-8.45,19.83-10.07,29.08-3.78
		L1158.79-161.75z"/>
	<path class="st23" d="M1158.41-162.25c0,0-33.16,21.1-35.09,53.53"/>
	<path class="st5" d="M1122.6-112.47c0,0,11.43-38.81-2.15-67.38c-5.7-11.99-7.59-25.45-4.96-38.46c1.26-6.18,3.08-12.23,5.44-18.07
		"/>
	<path class="st6" d="M1112.49-254.4c0,4.76,8.61,18.53,8.61,18.53s8.61-13.79,8.61-18.53c-0.11-4.76-4.06-8.52-8.81-8.41
		C1116.31-262.7,1112.61-259,1112.49-254.4L1112.49-254.4z"/>
	<path class="st6" d="M1098.26-228.05c2.59,3.99,17.31,10.89,17.31,10.89s-0.27-16.26-2.85-20.25c-2.68-3.93-8.04-4.93-11.97-2.25
		C1096.96-237.08,1095.86-231.97,1098.26-228.05L1098.26-228.05z"/>
	<path class="st6" d="M1098.88-183.03c4.25,2.14,20.44,0.66,20.44,0.66s-8.44-13.9-12.69-16.04c-4.29-2.06-9.43-0.25-11.49,4.04
		C1093.14-190.2,1094.79-185.19,1098.88-183.03L1098.88-183.03z"/>
	<path class="st6" d="M1107.02-149.08c3.82,2.83,20.04,4.11,20.04,4.11s-5.97-15.12-9.79-17.95c-3.8-2.86-9.2-2.1-12.06,1.71
		c-2.86,3.8-2.1,9.2,1.71,12.06C1106.95-149.13,1106.99-149.11,1107.02-149.08z"/>
	<path class="st6" d="M1133.67-216.24c-3.41,3.31-19.31,6.75-19.31,6.75s3.89-15.79,7.3-19.1c3.41-3.32,8.87-3.24,12.18,0.18
		S1137.09-219.56,1133.67-216.24L1133.67-216.24z"/>
	<path class="st6" d="M1142.67-176.42c-4.25,2.14-20.44,0.66-20.44,0.66s8.44-13.9,12.69-16.04c4.19-2.25,9.41-0.67,11.66,3.52
		c2.25,4.19,0.67,9.41-3.52,11.66C1142.93-176.54,1142.8-176.48,1142.67-176.42z"/>
	<path class="st6" d="M1146.12-136.48c-3.82,2.83-20.04,4.11-20.04,4.11s5.97-15.12,9.79-17.95c3.85-2.8,9.23-1.95,12.03,1.9
		C1150.68-144.63,1149.88-139.31,1146.12-136.48z"/>
	<path class="st7" d="M1112.49-254.4c0,4.76,8.61,18.53,8.61,18.53s8.61-13.79,8.61-18.53c-0.11-4.76-4.06-8.52-8.81-8.41
		C1116.31-262.7,1112.61-259,1112.49-254.4L1112.49-254.4z"/>
	<path class="st7" d="M1098.26-228.05c2.59,3.99,17.31,10.89,17.31,10.89s-0.27-16.26-2.85-20.25c-2.68-3.93-8.04-4.93-11.97-2.25
		C1096.96-237.08,1095.86-231.97,1098.26-228.05L1098.26-228.05z"/>
	<path class="st7" d="M1098.88-183.03c4.25,2.14,20.44,0.66,20.44,0.66s-8.44-13.9-12.69-16.04c-4.29-2.06-9.43-0.25-11.49,4.04
		C1093.14-190.2,1094.79-185.19,1098.88-183.03L1098.88-183.03z"/>
	<path class="st7" d="M1107.02-149.08c3.82,2.83,20.04,4.11,20.04,4.11s-5.97-15.12-9.79-17.95c-3.8-2.86-9.2-2.1-12.06,1.71
		c-2.86,3.8-2.1,9.2,1.71,12.06C1106.95-149.13,1106.99-149.11,1107.02-149.08z"/>
	<path class="st7" d="M1133.67-216.24c-3.41,3.31-19.31,6.75-19.31,6.75s3.89-15.79,7.3-19.1c3.41-3.32,8.87-3.24,12.18,0.18
		S1137.09-219.56,1133.67-216.24L1133.67-216.24z"/>
	<path class="st7" d="M1142.67-176.42c-4.25,2.14-20.44,0.66-20.44,0.66s8.44-13.9,12.69-16.04c4.19-2.25,9.41-0.67,11.66,3.52
		c2.25,4.19,0.67,9.41-3.52,11.66C1142.93-176.54,1142.8-176.48,1142.67-176.42z"/>
	<path class="st7" d="M1146.12-136.48c-3.82,2.83-20.04,4.11-20.04,4.11s5.97-15.12,9.79-17.95c3.85-2.8,9.23-1.95,12.03,1.9
		C1150.68-144.63,1149.88-139.31,1146.12-136.48z"/>
</g>
<g>
	<path class="st24" d="M1185.98,156.43l-13-2.3l-13.28,35.84l-22.68,33.78c-4.44,0.13-7.93,3.82-7.8,8.26
		c0.13,4.44,3.82,7.93,8.26,7.8s7.93-3.82,7.8-8.26c0-0.06,0-0.13-0.01-0.19l27.7-31.93L1185.98,156.43z"/>
	<path class="st25" d="M1230.48,111.78c0,12.89-11.92,10.94-26.61,10.94s-26.61,1.95-26.61-10.94s5.82-35.73,26.61-35.73
		C1225.38,76.05,1230.48,98.89,1230.48,111.78z"/>
	<path class="st24" d="M1279.41,223.89l-23.49-40.41l-10.94-36.62l-13.12,1.46l10.21,43.75l26.15,34.4
		c-2.3,3.78-1.09,8.72,2.69,11.01c3.78,2.3,8.72,1.09,11.01-2.69C1284.18,231.08,1283.06,226.24,1279.41,223.89z"/>
	<polygon class="st24" points="1256.11,288.23 1283.09,361.87 1294.18,361.87 1275.15,285.59 	"/>
	<polygon class="st24" points="1197.05,292.24 1170.07,365.88 1158.97,365.88 1178.01,289.6 	"/>
	<path class="st25" d="M1224.75,132.19c0,0,10.94-3.65,13.85,1.46c2.92,5.1,10.21,21.14,10.21,21.14l-14.58,2.19l13.12,32.81
		c0,0,18.23,13.85,22.6,45.21c4.37,31.35,8.75,56.87,8.75,56.87s-75.83,12.4-105,7.29c0,0,2.19-15.31,8.02-16.04
		c-4.37-4.37,1.39-8.02,1.39-8.02l13.19-47.39l2.92-23.33c0,0-5.08-23.86-11.67-28.44c-6.59-4.58-4.37-17.5-4.37-17.5l-13.12,0.73
		c0,0,1.46-23.33,8.02-23.33h8.02L1224.75,132.19z"/>
	<path class="st25" d="M1295.55,371.41l-28.82,0v-0.36c0-6.2,5.02-11.22,11.22-11.22h0l17.6,0L1295.55,371.41z"/>
	<path class="st25" d="M1173.06,371.41l-28.82,0v-0.36c0-6.2,5.02-11.22,11.22-11.22h0l17.6,0L1173.06,371.41z"/>
	<circle class="st24" cx="1205.04" cy="103.48" r="17.91"/>
	<path class="st25" d="M1183.09,103.03L1183.09,103.03h7.08l3.12-8.75l0.62,8.75h3.39l1.82-5.1l0.36,5.1h25.16l0,0
		c0-10.47-8.49-18.96-18.96-18.96l0,0h-3.65C1191.57,84.07,1183.09,92.56,1183.09,103.03L1183.09,103.03z"/>
	<path class="st26" d="M1367.93,372.54h-277.8c-0.4,0-0.73-0.33-0.73-0.73s0.33-0.73,0.73-0.73h277.8c0.4,0,0.73,0.33,0.73,0.73
		S1368.33,372.54,1367.93,372.54z"/>
	<rect id="b176a470-c9a0-4b19-a249-9749cef70ca2" x="823.21" y="100.91" class="st26" width="313.71" height="131.73"/>
	<path class="st27" d="M829.78,226.08h300.59V107.47H829.78V226.08z"/>
	<path class="st6" d="M1084.04,150.14v50.58c0,1.39-1.13,2.51-2.51,2.51h-54.42c-1.39,0-2.51-1.13-2.51-2.51v-50.58
		c0-1.39,1.13-2.51,2.51-2.51h54.42C1082.92,147.63,1084.04,148.75,1084.04,150.14z"/>
	<path class="st28" d="M1058.16,203.49h-7.69c-1.37,0.02-2.49-1.08-2.51-2.45v-52.47c0.02-1.37,1.14-2.47,2.51-2.45h7.69
		c1.37-0.02,2.49,1.08,2.51,2.45v52.47C1060.65,202.41,1059.53,203.5,1058.16,203.49z"/>
	<path class="st28" d="M1052.73,131.8c3.95,3.42,2.7,11.34,2.7,11.34s-7.66,2.37-11.61-1.05s-2.7-11.34-2.7-11.34
		S1048.78,128.37,1052.73,131.8z"/>
	<path class="st28" d="M1065.86,141.43c-3.41,3.96-11.33,2.74-11.33,2.74s-2.39-7.65,1.01-11.61c3.41-3.96,11.33-2.74,11.33-2.74
		S1069.27,137.46,1065.86,141.43z"/>
	<path class="st29" d="M1084.04,150.14v8.52l-59.45-0.25v-8.26c0-1.39,1.13-2.51,2.51-2.51h54.42
		C1082.92,147.63,1084.04,148.75,1084.04,150.14z"/>
	<path class="st6" d="M1090.44,155.32c-0.48,0.63-1.22,0.99-2.01,0.99l-66.25-0.28c-1.39-0.01-2.51-1.14-2.5-2.52l0,0l0.03-7.39
		c0.01-1.39,1.14-2.51,2.52-2.5h0l66.25,0.28c1.39,0.01,2.51,1.14,2.5,2.52l0,0l-0.03,7.39
		C1090.96,154.35,1090.78,154.88,1090.44,155.32z"/>
	
		<rect x="1047.79" y="143.45" transform="matrix(4.006715e-03 -1 1 4.006715e-03 900.4169 1203.6455)" class="st28" width="13.31" height="12.72"/>
	<rect id="b0bfb71d-a32e-4f0c-b04f-06b3baf1791c" x="869.51" y="146.89" class="st30" width="73.55" height="5.87"/>
	<rect id="a096be4f-2cf6-461f-ae56-f8547c16e35b" x="869.51" y="168.31" class="st6" width="113.57" height="5.87"/>
	<rect id="be15e58f-5799-4307-babb-7d5595f0559e" x="869.51" y="188.49" class="st30" width="92.56" height="5.87"/>
	<path id="bb7b29b1-743f-4814-99e1-7130c517fe83-247" class="st31" d="M915.25,330.17c5.82,2.04,12.28,0.91,17.05-3
		c5.97-5.01,7.84-13.27,9.37-20.91l4.51-22.62l-9.43,6.5c-6.78,4.67-13.72,9.49-18.42,16.26c-4.7,6.77-6.75,16-2.97,23.32"/>
	<path id="fed11345-5ecc-4699-9d2a-1ad58856fa3e-248" class="st32" d="M916.71,359.13c-1.19-8.65-2.41-17.41-1.57-26.16
		c0.74-7.76,3.11-15.35,7.93-21.57c2.56-3.29,5.68-6.12,9.21-8.34c0.92-0.58,1.77,0.88,0.85,1.46c-6.11,3.86-10.83,9.56-13.49,16.28
		c-2.94,7.47-3.41,15.62-2.9,23.55c0.31,4.8,0.96,9.57,1.61,14.33c0.11,0.45-0.15,0.9-0.59,1.04
		C917.3,359.84,916.84,359.57,916.71,359.13L916.71,359.13z"/>
	<path id="a3dbae8e-6ba7-4728-9f88-d2b4a8de2cb7-249" class="st31" d="M925.26,345.25c2.49,3.79,6.79,6.01,11.32,5.85
		c5.73-0.27,10.51-4.27,14.81-8.07l12.72-11.24l-8.42-0.4c-6.06-0.29-12.27-0.56-18.04,1.31s-11.09,6.36-12.14,12.33"/>
	<path id="b12c7aab-829f-433e-99e1-9b0624b941d5-250" class="st32" d="M913.35,364.1c5.72-10.11,12.35-21.35,24.19-24.95
		c3.29-1,6.75-1.35,10.18-1.05c1.08,0.09,0.81,1.76-0.27,1.67c-5.75-0.48-11.48,1.04-16.24,4.3c-4.58,3.12-8.14,7.45-11.16,12.04
		c-1.85,2.81-3.5,5.75-5.16,8.68C914.37,365.72,912.82,365.05,913.35,364.1z"/>
	<path class="st26" d="M975.66,365.98h-99.16c-0.4,0-0.73-0.33-0.73-0.73s0.33-0.73,0.73-0.73h99.16c0.4,0,0.73,0.33,0.73,0.73
		S976.06,365.98,975.66,365.98z"/>
</g>
<g>
	<polygon class="st33" points="1069.67,-79.43 1076.22,-79.43 1079.33,-104.69 1069.67,-104.69 	"/>
	<path class="st25" d="M1068-81.57h12.89c4.54,0.01,8.21,3.68,8.22,8.22v0.27H1068V-81.57z"/>
	<polygon class="st33" points="985.25,-91.84 990.86,-88.47 1006.54,-108.51 998.25,-113.48 	"/>
	<path class="st25" d="M980.55-87.26l4.37-7.27l11.05,6.64c3.89,2.34,5.14,7.38,2.81,11.27l-0.14,0.23L980.55-87.26z"/>
	<path class="st25" d="M1067.89-84.73c-1.32-1.34-4.6-23.43-9.46-56.97c-1.69-11.66-3.29-22.7-4.6-31.16
		c-11.26,24.76-29.47,51.55-51.36,75.53l-0.13,0.14l-0.17-0.07c-7-2.88-8.3-3.55-11.45-5.16c-0.94-0.48-2.05-1.05-3.52-1.79
		l-0.08-0.06c-0.68-0.77,5.49-11.01,27.06-45.82c9.39-15.17,19.11-30.85,25.54-41.73l0.06-0.1l0.12-0.02
		c15.55-3.24,30.55,0.56,42.23,10.72l0.09,0.08l0,0.13c-0.32,12.77-0.05,32.81,0.18,50.5c0.46,34.53,0.43,44.62-0.65,44.94
		l-0.05,0.01c-1.58,0.13-2.89,0.26-4.09,0.38c-3.16,0.36-6.35,0.54-9.53,0.55l-0.11,0L1067.89-84.73z"/>
	<path class="st25" d="M1033.98-288.1c-2.2-9.1-4.07-19.36,0.09-27.74c2.88-5.82,13.55-7.77,19.67-5.68s10.54,7.78,12.48,13.98
		c1.94,6.2,1.72,12.87,0.87,19.32C1055.84-288.45,1044.59-288.66,1033.98-288.1z"/>
	<circle class="st33" cx="1052.96" cy="-301.22" r="13.12"/>
	<path class="st25" d="M1036.93-303.92c-0.17-9.1,7.06-16.61,16.16-16.78c9.1-0.17,16.61,7.06,16.78,16.16
		c0.01,0.35,0,0.7-0.01,1.06C1058.63-303.46,1047.4-303.44,1036.93-303.92z"/>
	<path class="st28" d="M1088.46-175.6c-2.42-8.25-3.62-14.03-5.01-20.69c-1.91-9.14-4.07-19.5-10.02-39.68l-0.01-0.05l0.01-0.05
		c1.69-17.5-5.66-36.06-19.18-48.45c-1.88-1.59-4.68-1.45-6.39,0.32c-7.6,8.54-12.38,16.54-14.61,24.45l-0.05,0.17
		c3.17,10.22,6.73,20.48,10.17,30.41l0.05,0.14l-0.1,0.12c-12.87,15.5-19.99,36.21-19.56,56.88c12.32-4.31,25.28-6.48,38.33-6.42
		C1070.95-178.44,1079.79-177.49,1088.46-175.6z"/>
	<polygon class="st12" points="1042.86,-242.22 1062.23,-200.04 1073.3,-211.24 	"/>
	<path class="st6" d="M1148.43-403.46c0.18-23.59-15.21-42.84-34.38-42.99c-19.17-0.15-34.86,18.85-35.04,42.45
		c-0.17,21.39,12.47,39.21,29.11,42.46l-1.15,6.89l12.72,0.1l-1.04-6.91C1135.35-364.45,1148.26-382.07,1148.43-403.46z"/>
	<path class="st27" d="M1090.67-392.7l-4.81-0.04c-1.52-9.02-1.45-18.24,0.21-27.23l4.81,0.04
		C1088.73-410.53,1088.66-401.45,1090.67-392.7z"/>
	
		<rect x="1111.78" y="-367.15" transform="matrix(7.808349e-03 -1 1 7.808349e-03 1464.6193 756.2093)" class="st28" width="3.2" height="14.42"/>
	<path class="st34" d="M1215.22-390.43c1.87-23.52-12.11-43.82-31.22-45.33c-19.11-1.52-36.12,16.32-37.98,39.84
		c-1.69,21.32,9.64,40,26.01,44.43l-1.64,6.79l12.68,1.01l-0.55-6.96C1199.39-352.46,1213.53-369.11,1215.22-390.43z"/>
	<path class="st27" d="M1156.84-383.82l-4.79-0.38c-0.87-9.11-0.14-18.29,2.16-27.15l4.79,0.38
		C1156.18-401.75,1155.46-392.7,1156.84-383.82z"/>
	
		<rect x="1175.55" y="-356.74" transform="matrix(0.0792 -0.9969 0.9969 0.0792 1432.3899 851.5978)" class="st28" width="3.2" height="14.42"/>
	
		<rect x="1024.56" y="-265.21" transform="matrix(0.5224 -0.8527 0.8527 0.5224 762.7501 832.9968)" class="st28" width="200.86" height="1.6"/>
	<path class="st6" d="M1242.34-367.33c11.1-20.82,6.39-45.01-10.53-54.03c-16.92-9.02-39.63,0.55-50.73,21.36
		c-10.06,18.87-7.13,40.52,6.11,51.12l-4.21,5.57l11.23,5.99l2.28-6.6C1212.67-338.83,1232.28-348.45,1242.34-367.33z"/>
	<path class="st27" d="M1186.18-384.57l-4.24-2.26c2.83-8.7,7.17-16.83,12.81-24.03l4.24,2.26
		C1192.73-401.27,1188.45-393.26,1186.18-384.57z"/>
	
		<rect x="1189.51" y="-352.23" transform="matrix(0.4705 -0.8824 0.8824 0.4705 935.133 868.3477)" class="st28" width="3.2" height="14.42"/>
	
		<rect x="1031.29" y="-264.04" transform="matrix(0.5883 -0.8086 0.8086 0.5883 678.7772 806.7745)" class="st28" width="200.86" height="1.6"/>
	
		<rect x="997.07" y="-261.84" transform="matrix(0.1749 -0.9846 0.9846 0.1749 1162.6058 865.1951)" class="st28" width="200.86" height="1.6"/>
	<path class="st33" d="M1086.05-197.39c-2.96-0.21-5.19-2.77-4.98-5.73c0.02-0.32,0.07-0.63,0.15-0.94l-15.96-10.46l9.1-3.93
		l13.76,10.53c2.84,0.92,4.4,3.96,3.48,6.8C1090.83-198.74,1088.54-197.2,1086.05-197.39L1086.05-197.39z"/>
	<path class="st28" d="M1070.53-205.11c-9.55-10.98-19.42-22.34-28.4-33.75l-0.06-0.08l0-0.09c0.04-9.32,0.08-18.96,1.19-29.74
		c-1.77-1.87-2.6-4.44-2.26-6.99c0.24-2.86,1.77-5.46,4.16-7.07c4.5-2.84,11.24-1.3,14.42,3.29c3.08,4.44,2.63,10.79,0.28,13.99
		l-2.6,20.37l-0.23-0.02l0.05,0.03l0.02-0.01l0.03,0.04l0.08,0.04c0,0.01-0.01,0.02-0.02,0.04c8.43,10.29,17.14,20.93,25.85,31.11
		l0.19,0.23l-0.24,0.17c-4.08,2.8-8.3,5.69-12.09,8.48l-0.2,0.14L1070.53-205.11z"/>
	<path class="st28" d="M1147.02-72.4H943.57c-0.29,0-0.53-0.24-0.53-0.53s0.24-0.53,0.53-0.53h203.45c0.29,0,0.53,0.24,0.53,0.53
		S1147.32-72.4,1147.02-72.4z"/>
	<polygon class="st32" points="1206.15,-189.99 1206.15,-189.99 1206.15,-189.99 	"/>
	<path class="st32" d="M1227.13-183.89l-0.32,1.02l-20.12-6.38c1.78,2.36,7.76,9.72,13.97,11.34c7.42,1.94,11.24-0.77,12.36-5.05
		c1.12-4.28-0.89-8.51-8.31-10.45c-6.29-1.64-15.25,1.96-17.83,3.1L1227.13-183.89z"/>
	<polygon class="st32" points="1130.38,-137.41 1130.38,-137.41 1130.38,-137.41 	"/>
	<path class="st32" d="M1132.02-115.62l-1.07,0.05l-1.07-21.08c-1.58,2.5-6.38,10.67-5.73,17.06c0.78,7.63,4.66,10.26,9.06,9.81
		c4.4-0.45,7.66-3.81,6.88-11.44c-0.66-6.47-7.18-13.59-9.15-15.62L1132.02-115.62z"/>
	<polygon class="st32" points="977.2,-376.14 977.2,-376.14 977.2,-376.14 	"/>
	<path class="st32" d="M959.34-388.73l0.64-0.86l16.95,12.58c-0.92-2.81-4.18-11.71-9.53-15.26c-6.39-4.24-10.88-2.92-13.33,0.76
		c-2.45,3.68-1.92,8.34,4.46,12.58c5.41,3.6,15.06,3.1,17.87,2.86L959.34-388.73z"/>
</g>
</svg>
