<?xml version="1.0" encoding="utf-8"?>
<!-- Generator: Adobe Illustrator 24.0.2, SVG Export Plug-In . SVG Version: 6.00 Build 0)  -->
<svg version="1.1" id="Layer_1" xmlns="http://www.w3.org/2000/svg" xmlns:xlink="http://www.w3.org/1999/xlink" x="0px" y="0px"
	 viewBox="0 0 1460 430" style="enable-background:new 0 0 1460 430;" xml:space="preserve">
<style type="text/css">
	.st0{fill:#AE85C9;}
	.st1{fill:none;}
	.st2{fill:#FFFFFF;}
	.st3{font-family:'Pretendard-Regular-KSCpc-EUC-H';}
	.st4{font-size:27px;}
	.st5{font-family:'Pretendard-Bold-KSCpc-EUC-H';}
	.st6{font-size:92px;}
	.st7{fill:#FF6584;}
	.st8{fill:#F2F2F2;}
	.st9{fill:#E6E6E6;}
	.st10{fill:#3F3D56;}
	.st11{fill:#F49092;}
	.st12{fill:#FFB6B6;}
	.st13{fill:#2F2E41;}
	.st14{fill:#F0F0F0;}
</style>
<rect x="0" y="0.41" class="st0" width="1460" height="430"/>
<rect x="132.12" y="159.92" class="st1" width="597.96" height="110.97"/>
<text transform="matrix(1 0 0 1 132.1239 179.0134)"><tspan x="0" y="0" class="st2 st3 st4">나의 꿈이 이루어지는 공간</tspan><tspan x="0" y="90" class="st2 st5 st6">Gummi</tspan></text>
<g>
	<circle class="st7" cx="1251.67" cy="149.15" r="30.27"/>
	<path class="st8" d="M1028.16,273.08c0,79.98-51.21,98.92-122.76,98.92s-92.34-1.89-92.34-81.87S720.34,71.21,791.89,71.21
		S1028.16,193.1,1028.16,273.08z"/>
	<g>
		
			<ellipse transform="matrix(0.9997 -0.0256 0.0256 0.9997 -8.4691 24.2596)" class="st9" cx="942.01" cy="342.47" rx="4.87" ry="0.79"/>
		
			<ellipse transform="matrix(0.9997 -0.0256 0.0256 0.9997 -8.3932 25.0493)" class="st10" cx="972.85" cy="339.9" rx="4.87" ry="0.79"/>
		
			<ellipse transform="matrix(0.9997 -0.0256 0.0256 0.9997 -8.337 23.9395)" class="st7" cx="929.6" cy="337.16" rx="4.87" ry="0.79"/>
		
			<ellipse transform="matrix(0.0113 -0.9999 0.9999 0.0113 571.2266 1248.8932)" class="st9" cx="917.17" cy="335.58" rx="0.71" ry="2.16"/>
		
			<ellipse transform="matrix(0.0113 -0.9999 0.9999 0.0113 567.9344 1237.2291)" class="st10" cx="909.62" cy="331.41" rx="0.71" ry="2.16"/>
		
			<ellipse transform="matrix(0.0113 -0.9999 0.9999 0.0113 602.8226 1283.8723)" class="st9" cx="950.66" cy="337.09" rx="0.71" ry="2.16"/>
		
			<ellipse transform="matrix(0.0113 -0.9999 0.9999 0.0113 586.3609 1272.498)" class="st7" cx="936.67" cy="339.73" rx="0.71" ry="2.16"/>
		
			<ellipse transform="matrix(0.0113 -0.9999 0.9999 0.0113 607.3223 1297.6008)" class="st10" cx="959.85" cy="341.68" rx="0.71" ry="2.16"/>
	</g>
	<g>
		
			<ellipse transform="matrix(0.9997 -0.0256 0.0256 0.9997 -8.3599 30.2031)" class="st9" cx="1173.9" cy="341.18" rx="4.87" ry="0.79"/>
		
			<ellipse transform="matrix(0.9997 -0.0256 0.0256 0.9997 -8.2839 30.9929)" class="st10" cx="1204.74" cy="338.61" rx="4.87" ry="0.79"/>
		
			<ellipse transform="matrix(0.9997 -0.0256 0.0256 0.9997 -8.2278 29.8832)" class="st7" cx="1161.48" cy="335.87" rx="4.87" ry="0.79"/>
		
			<ellipse transform="matrix(0.0113 -0.9999 0.9999 0.0113 801.7735 1479.4883)" class="st9" cx="1149.05" cy="334.29" rx="0.71" ry="2.16"/>
		
			<ellipse transform="matrix(0.0113 -0.9999 0.9999 0.0113 798.4813 1467.8243)" class="st10" cx="1141.51" cy="330.13" rx="0.71" ry="2.16"/>
		
			<ellipse transform="matrix(0.0113 -0.9999 0.9999 0.0113 833.3694 1514.4675)" class="st9" cx="1182.54" cy="335.81" rx="0.71" ry="2.16"/>
		
			<ellipse transform="matrix(0.0113 -0.9999 0.9999 0.0113 816.9078 1503.0931)" class="st7" cx="1168.56" cy="338.44" rx="0.71" ry="2.16"/>
		
			<ellipse transform="matrix(0.0113 -0.9999 0.9999 0.0113 837.8691 1528.196)" class="st10" cx="1191.73" cy="340.39" rx="0.71" ry="2.16"/>
	</g>
	<g>
		
			<ellipse transform="matrix(0.9997 -0.0256 0.0256 0.9997 -8.445 27.4299)" class="st9" cx="1065.68" cy="343.11" rx="4.87" ry="0.79"/>
		
			<ellipse transform="matrix(0.9997 -0.0256 0.0256 0.9997 -8.3691 28.2198)" class="st10" cx="1096.53" cy="340.54" rx="4.87" ry="0.79"/>
		
			<ellipse transform="matrix(0.9997 -0.0256 0.0256 0.9997 -8.3129 27.1099)" class="st7" cx="1053.27" cy="337.8" rx="4.87" ry="0.79"/>
		
			<ellipse transform="matrix(0.0113 -0.9999 0.9999 0.0113 692.8538 1373.1934)" class="st9" cx="1040.84" cy="336.23" rx="0.71" ry="2.16"/>
		
			<ellipse transform="matrix(0.0113 -0.9999 0.9999 0.0113 689.5616 1361.5294)" class="st10" cx="1033.3" cy="332.06" rx="0.71" ry="2.16"/>
		
			<ellipse transform="matrix(0.0113 -0.9999 0.9999 0.0113 724.4498 1408.1725)" class="st9" cx="1074.33" cy="337.74" rx="0.71" ry="2.16"/>
		
			<ellipse transform="matrix(0.0113 -0.9999 0.9999 0.0113 707.9882 1396.7982)" class="st7" cx="1060.34" cy="340.37" rx="0.71" ry="2.16"/>
		
			<ellipse transform="matrix(0.0113 -0.9999 0.9999 0.0113 728.9495 1421.9011)" class="st10" cx="1083.52" cy="342.33" rx="0.71" ry="2.16"/>
	</g>
	<path class="st11" d="M909.81,306.35c-1.65,0.1-2.56-1.94-1.31-3.13l0.12-0.49c-0.02-0.04-0.03-0.08-0.05-0.12
		c-1.66-3.97-7.31-3.94-8.96,0.03c-1.47,3.53-3.33,7.06-3.79,10.79c-0.21,1.65-0.11,3.32,0.25,4.94c-3.43-7.5-5.24-15.69-5.24-23.92
		c0-2.07,0.11-4.14,0.34-6.2c0.19-1.69,0.45-3.37,0.79-5.03c1.84-8.99,5.82-17.55,11.55-24.69c2.76-1.51,5.06-3.87,6.45-6.69
		c0.5-1.02,0.89-2.12,1.08-3.23c-0.31,0.04-1.18-4.74-0.95-5.03c-0.44-0.66-1.22-0.99-1.7-1.64c-2.38-3.22-5.65-2.66-7.36,1.72
		c-3.65,1.84-3.69,4.9-1.45,7.84c1.43,1.87,1.62,4.4,2.87,6.4c-0.13,0.16-0.26,0.32-0.39,0.49c-2.36,3.03-4.4,6.28-6.12,9.7
		c0.49-3.8-0.23-8.37-1.46-11.32c-1.39-3.36-4-6.19-6.3-9.1c-2.76-3.49-8.43-1.97-8.91,2.46c0,0.04-0.01,0.09-0.01,0.13
		c0.34,0.19,0.68,0.4,1,0.61c1.86,1.23,1.22,4.12-0.99,4.46l-0.05,0.01c0.12,1.23,0.33,2.45,0.64,3.65
		c-2.95,11.41,3.42,15.56,12.51,15.75c0.2,0.1,0.4,0.21,0.6,0.3c-0.92,2.59-1.66,5.25-2.2,7.95c-0.49,2.38-0.83,4.79-1.02,7.21
		c-0.24,3.05-0.22,6.12,0.04,9.17l-0.02-0.11c-0.65-3.36-2.48-6.49-5.12-8.66c-3.94-3.24-9.51-4.43-13.76-7.03
		c-2.05-1.25-4.67,0.37-4.31,2.74c0.01,0.04,0.01,0.08,0.02,0.11c0.63,0.26,1.25,0.56,1.85,0.89c0.34,0.19,0.68,0.4,1,0.61
		c1.86,1.23,1.22,4.12-0.99,4.46l-0.05,0.01c-0.04,0.01-0.07,0.01-0.1,0.02c1.09,2.58,2.6,4.97,4.49,7.04
		c1.84,9.96,9.77,10.9,18.24,8h0.01c0.93,4.04,2.28,7.98,4.02,11.73h14.36c0.05-0.16,0.1-0.32,0.14-0.48
		c-1.33,0.08-2.67,0.01-3.97-0.24c1.07-1.31,2.13-2.62,3.2-3.93c0.03-0.03,0.05-0.05,0.07-0.08c0.54-0.67,1.09-1.33,1.63-2l0,0
		C910.55,310.39,910.3,308.34,909.81,306.35L909.81,306.35L909.81,306.35z"/>
	<path class="st11" d="M1194.82,306.35c1.65,0.1,2.56-1.94,1.31-3.13l-0.12-0.49c0.02-0.04,0.03-0.08,0.05-0.12
		c1.66-3.97,7.31-3.94,8.96,0.03c1.47,3.53,3.33,7.06,3.79,10.79c0.21,1.65,0.11,3.32-0.25,4.94c3.43-7.5,5.24-15.69,5.24-23.92
		c0-2.07-0.11-4.14-0.34-6.2c-0.19-1.69-0.45-3.37-0.79-5.03c-1.84-8.99-5.82-17.55-11.55-24.69c-2.76-1.51-5.06-3.87-6.45-6.69
		c-0.5-1.02-0.89-2.12-1.08-3.23c0.31,0.04,1.18-4.74,0.95-5.03c0.44-0.66,1.22-0.99,1.7-1.64c2.38-3.22,5.65-2.66,7.36,1.72
		c3.65,1.84,3.69,4.9,1.45,7.84c-1.43,1.87-1.62,4.4-2.87,6.4c0.13,0.16,0.26,0.32,0.39,0.49c2.36,3.03,4.4,6.28,6.12,9.7
		c-0.49-3.8,0.23-8.37,1.46-11.32c1.39-3.36,4-6.19,6.3-9.1c2.76-3.49,8.43-1.97,8.91,2.46c0,0.04,0.01,0.09,0.01,0.13
		c-0.34,0.19-0.68,0.4-1,0.61c-1.86,1.23-1.22,4.12,0.99,4.46l0.05,0.01c-0.12,1.23-0.33,2.45-0.64,3.65
		c2.95,11.41-3.42,15.56-12.51,15.75c-0.2,0.1-0.4,0.21-0.6,0.3c0.92,2.59,1.66,5.25,2.2,7.95c0.49,2.38,0.83,4.79,1.02,7.21
		c0.24,3.05,0.22,6.12-0.04,9.17l0.02-0.11c0.65-3.36,2.48-6.49,5.12-8.66c3.94-3.24,9.51-4.43,13.76-7.03
		c2.05-1.25,4.67,0.37,4.31,2.74c-0.01,0.04-0.01,0.08-0.02,0.11c-0.63,0.26-1.25,0.56-1.85,0.89c-0.34,0.19-0.68,0.4-1,0.61
		c-1.86,1.23-1.22,4.12,0.99,4.46l0.05,0.01c0.04,0.01,0.07,0.01,0.1,0.02c-1.09,2.58-2.6,4.97-4.49,7.04
		c-1.84,9.96-9.77,10.9-18.24,8h-0.01c-0.93,4.04-2.28,7.98-4.02,11.73h-14.36c-0.05-0.16-0.1-0.32-0.14-0.48
		c1.33,0.08,2.67,0.01,3.97-0.24c-1.07-1.31-2.13-2.62-3.2-3.93c-0.03-0.03-0.05-0.05-0.07-0.08c-0.54-0.67-1.09-1.33-1.63-2l0,0
		C1194.09,310.39,1194.34,308.34,1194.82,306.35L1194.82,306.35L1194.82,306.35z"/>
	<g>
		<g>
			<path class="st12" d="M1021.67,197c2.14-1.43,2.72-4.33,1.29-6.48c-0.14-0.22-0.31-0.41-0.48-0.59l0.95-42.42l-8.38,1.3
				l0.59,41.15c-1.43,1.55-1.67,3.93-0.45,5.76C1016.62,197.85,1019.52,198.43,1021.67,197L1021.67,197z"/>
			<path class="st9" d="M1022.03,125.52c0,0-0.56,0.42,2.3,4.76c2,3.05,1.72,24.58,2.14,24.3c0.41-0.28-0.62,1.17-0.1,1.41
				c0.52,0.24-0.44,1.44-0.19,2.06c0.3,0.76-0.07,1.59-0.31,2.35c-0.68,2.2-0.83,4.08-1.42,5.13c1.41,0.81,2.16,2.5,1.7,4.14
				l-11.81-2.14c-1.44-2.31-1.23-4.73-0.25-5.15l-0.29-7.51l-3.36-24.67l9.86-4.4L1022.03,125.52L1022.03,125.52z"/>
		</g>
		<g>
			<polygon class="st12" points="1002.53,330.26 1007.58,330.22 1009.82,310.27 1002.36,310.33 			"/>
			<path class="st13" d="M1000.23,340.72l3.8-0.03l0.03-0.2l0.61-3.39l1.67,3.39l0.09,0.18l10.05-0.08c0.22,0,0.43-0.03,0.63-0.09
				c0.94-0.28,1.63-1.16,1.62-2.19c-0.01-0.74-0.38-1.43-0.99-1.85l-8.08-5.48l-0.03-3.61l-1.73,0.12l-5.39,0.37l-1.32,0.09
				l-0.94,12.56L1000.23,340.72L1000.23,340.72z"/>
		</g>
		<g>
			<polygon class="st12" points="932.49,304.51 935.99,308.16 952.05,296.09 946.88,290.71 			"/>
			<path class="st13" d="M923.31,310.01l2.62,2.74l3.05-1.99l-1.39,3.73l6.65,6.93l0.31,0.32c0.16,0.16,0.34,0.3,0.53,0.41
				c0.3,0.17,0.64,0.26,0.97,0.28c0.6,0.04,1.22-0.17,1.69-0.62c0.54-0.51,0.79-1.26,0.67-1.99l-1.56-9.63l2.61-2.51l-1.27-1.18l0,0
				l-3.96-3.66l-0.97-0.9L923.31,310.01L923.31,310.01z"/>
		</g>
		<path class="st13" d="M1012.7,162.46l9.65,28.04l0.32,2.24c2.43,2.31-0.62,3.07,0.52,3.68s-1.19,2.45,0.37,2.62
			c3.34,0.35-3.53,110.6-13.08,113.92c-2.38,0.83-7.39,2.13-10.01,1.72c-3.99-0.62-4.85-16.56-0.53-31.71
			c0.47-1.65-1.89-3.53-0.35-5.2s-0.19-2.77-0.29-4.15c-0.43-6.14,3.31-7.39,3.1-14.98c-0.46-16.86-4.51-39.94-4.51-39.94
			s-7.01,54.89-9.66,52.17c-2.66-2.72-3.83,1.75-4.64,3.75c-0.68,1.67-0.36,3.02-4.61,3.07c-4.25,0.05-27.09,22.2-28.11,22.16
			c-2.01-0.08-9.28-2.4-9.66-5.8c-0.64-5.8,7.73-17.39,23.34-31.27c1.38-1.23,3.15-1.82,1.44-5.26c-1.71-3.44,6.81-25.67,6.08-26.7
			c-1.94-2.73-2.68-3.92-0.77-4.1c1.91-0.18,2.48,0.87,2.58-1.78c0.1-2.65,0.43-9.18,0.43-9.18c0.46-30.01,1.48-31.94,11.09-40.09
			l0.83-8.48L1012.7,162.46L1012.7,162.46z"/>
		<path class="st9" d="M1019.93,161.34c0.28,0.04,1.38,0.26-0.07,0.6c-1.45,0.34-0.09,0.79-0.09,0.79
			c-0.47,0.32-0.95,0.64-1.43,0.97c-4.99,3.44,5.95,16.71,0.8,20.07c-7.24,4.72-27.82-3.9-32.76-7.43
			c-0.26-0.18-0.51-0.39-0.76-0.61v0c-0.14-0.12-0.28-0.25-0.42-0.39c0,0-1.79-4.68-0.99-4.17c0.8,0.52,0.79-0.68,0.16-1.7
			c-0.64-1.01-0.91-2.64,0.19-1.82s2.22-6.64,2.96-7.52c0.5-0.59,0.67-0.94,0.67-1.13c0-0.43-0.84-0.12-0.84-0.12
			s-1.13-0.23-0.13-0.9c1-0.66-1.63-11.4-1.63-11.4l-1.3-9.13c-1.42-4.25-2.9-9.72-0.31-12.28l13.25-7.07l13.52-0.45l10.64,5.72
			c4.12,2.1,2.88,11.71,1.2,16.03c0,0-2.28,21.51-2.55,21.07C1019.76,160.03,1019.65,161.3,1019.93,161.34L1019.93,161.34z"/>
		<path class="st13" d="M1016.79,99.23c-0.13,1.54-0.25,3.08-0.37,4.62c-0.15,1.8-0.29,3.61-0.75,5.35
			c-0.12,0.48-0.28,0.97-0.61,1.34c-0.55,0.62,0.47,4.28-0.29,4.63c-0.83,0.39-1.64,0.6-2.43,0.68c-0.04-0.26-0.08-0.51-0.13-0.76
			c-0.01-0.03-0.01-0.05-0.02-0.08c-0.24-1.13-0.68-2.23-1.3-3.21c0.15,1.16,0.01,2.35-0.38,3.45c-0.06,0.18-0.14,0.36-0.22,0.54
			c-3.31-0.49-6.17-2.72-8.43-2.7c-1.37-4.6-2.34-9.31-2.89-14.07c-0.15-1.27-0.23-2.68,0.55-3.69c0.69-0.9,1.88-1.22,2.99-1.46
			c3.62-0.78,7.33-1.14,11.02-1.06l-6.41-1.49c1.8-0.01,3.63-0.02,5.35,0.51c1.72,0.52,3.35,1.66,4.01,3.33
			C1017,96.43,1016.89,97.86,1016.79,99.23L1016.79,99.23z"/>
		<circle class="st12" cx="1002.55" cy="100.15" r="13.05"/>
		<path class="st13" d="M1015.79,120.86c-4.92-4.38,3.47-16.88-3.09-25.23l-0.79-0.59c-0.45,1.09-1.63,1.99-2.73,2.52
			c-0.25-1.15-0.66-2.25-1.22-3.25c0.15,1.26,0.02,2.55-0.33,3.75c-0.37,0.05-0.63-0.01-0.72-0.17c0.12,1.01-2.98,1.52-2.33-0.06
			c0.01-0.02,0.01-0.03,0.02-0.05c-0.8,1.61-2.44,2.36-3.87,3.25c-1.43,0.89-2.88,2.37-2.74,4.21c0.12,1.49,1.25,2.6,2.4,3.34
			c1.14,0.75,2.43,1.33,3.25,2.49c1.39,1.95,1.07,4.8,0.36,7.17c-0.22,0.74-0.87,1.26-1.73,1.55c-0.24-1.28-0.68-2.53-1.3-3.64
			c0.15,1.32,0.01,2.67-0.38,3.92c-1.66,0.03-3.52-0.54-4.63-1.75l0.88,3.91c-1.42-0.3-2.85,0.04-4.29,0.3
			c-0.03-0.44-0.1-0.88-0.18-1.32c-0.23-1.32-0.68-2.6-1.32-3.74c0.19,1.62-0.06,3.27-0.68,4.75c-0.07,0.17-0.15,0.34-0.23,0.51
			c-2.22-0.16-4.43-1.45-4.01-4.81c0.14-1.11,0.69-2.08,1.31-2.95c1.14-1.6-4.68-3.32-4.33-5.25c0.53-2.87,5.84-5.4,5.42-8.3
			c-0.37-2.62-0.3-8.54,1.14-10.58c2.09-2.95-0.23-9.05,14.59-5.58c5.51,1.29,7.42-4.12,15.74,12.4c1.42,2.83-3.76,1.86-0.71,7.93
			C1022.35,111.67,1013.63,116.48,1015.79,120.86L1015.79,120.86z"/>
		<g>
			<path class="st13" d="M990,92.41c0.03,0.01,0.05,0.02,0.08,0.03c0.05,0.03,0.11,0.04,0.17,0.06c0.37,0.14,0.76,0.23,1.16,0.27
				c0.16,0.02,0.34,0.03,0.51,0.03c0.22,0,0.44-0.01,0.65-0.04c0.24-0.03,0.48-0.08,0.71-0.14c0.11-0.03,0.22-0.07,0.33-0.11
				c1.47-0.52,2.63-1.71,3.1-3.21v0c0.03-0.07,0.04-0.15,0.06-0.22c0.11-0.4,0.16-0.83,0.16-1.27l0-0.01c0-0.39-0.04-0.76-0.13-1.12
				c-0.15-0.65-0.42-1.26-0.8-1.78c-0.37-0.52-0.79-0.6-0.55-1.2c0.76-1.89-2.34-3.43-4.16-2.6c-0.07-0.01-0.13-0.01-0.2-0.01
				c-1.23,0-1.68,1.81-2.42,2.83l0.02,0.01c0.85,0.28,0.84,1.51-0.01,1.78c-0.49,0.16-0.98,0.3-1.48,0.42
				C985.58,88.07,987.46,93.75,990,92.41L990,92.41z"/>
			<path class="st11" d="M995.87,84.41c0.18,3.48-1.91,6.95-5.09,8.39c-0.64,0.29-1.2-0.66-0.55-0.95c2.85-1.29,4.7-4.3,4.54-7.44
				C994.74,83.7,995.84,83.7,995.87,84.41L995.87,84.41z"/>
		</g>
		<path class="st11" d="M1003.54,155.68c0.94,0.06,1.46-1.11,0.75-1.79l-0.07-0.28l0.03-0.07c0.95-2.26,4.16-2.25,5.1,0.02
			c0.83,2.01,1.9,4.02,2.16,6.15c0.12,0.94,0.06,1.89-0.14,2.81c1.96-4.27,2.98-8.93,2.98-13.63c0-1.18-0.06-2.36-0.2-3.53
			c-0.11-0.96-0.26-1.92-0.45-2.86c-1.05-5.12-3.31-9.99-6.58-14.06c-1.57-0.86-2.88-2.2-3.67-3.81c-0.28-0.58-0.51-1.2-0.61-1.84
			c0.18,0.02,0.67-2.7,0.54-2.87c0.25-0.38,0.7-0.57,0.97-0.94c1.35-1.84,3.22-1.51,4.19,0.98c2.08,1.05,2.1,2.79,0.82,4.46
			c-0.81,1.07-0.92,2.51-1.64,3.65c0.07,0.09,0.15,0.18,0.22,0.28c1.34,1.72,2.51,3.58,3.49,5.52c-0.28-2.16,0.13-4.77,0.83-6.45
			c0.79-1.91,2.28-3.53,3.59-5.18c1.57-1.99,4.8-1.12,5.08,1.4l0.01,0.07c-0.19,0.11-0.39,0.23-0.57,0.35
			c-1.06,0.7-0.69,2.35,0.56,2.54l0.03,0c-0.07,0.7-0.19,1.4-0.37,2.08c1.68,6.5-1.95,8.86-7.13,8.97
			c-0.11,0.06-0.23,0.12-0.34,0.17c0.52,1.48,0.94,2.99,1.25,4.53c0.28,1.36,0.47,2.73,0.58,4.11c0.13,1.74,0.12,3.49-0.02,5.22
			l0.01-0.06c0.37-1.91,1.41-3.7,2.92-4.93c2.24-1.84,5.42-2.52,7.84-4c1.17-0.71,2.66,0.21,2.46,1.56l-0.01,0.06
			c-0.36,0.15-0.71,0.32-1.05,0.51c-0.19,0.11-0.39,0.23-0.57,0.35c-1.06,0.7-0.69,2.35,0.56,2.54l0.03,0
			c0.02,0,0.04,0.01,0.06,0.01c-0.62,1.47-1.48,2.83-2.56,4.01c-1.05,5.67-5.56,6.21-10.39,4.56h0c-0.53,2.3-1.3,4.54-2.29,6.68
			h-8.18c-0.03-0.09-0.06-0.18-0.08-0.28c0.76,0.05,1.52,0,2.26-0.13c-0.61-0.74-1.21-1.5-1.82-2.24c-0.01-0.01-0.03-0.03-0.04-0.04
			c-0.31-0.38-0.62-0.76-0.93-1.14l0,0C1003.12,157.97,1003.26,156.81,1003.54,155.68L1003.54,155.68L1003.54,155.68z"/>
		<g>
			<path class="st12" d="M995.43,134.51c0,0-9.87-10.49-10.37-5.41c-0.33,3.3-3.6,20.51-1.72,26.41c0.94,2.94,4.19,4.44,7.03,3.26
				l23.63-9.81l-3.11-6.37l-18.72,7.75L995.43,134.51L995.43,134.51z"/>
			<circle class="st12" cx="1014.37" cy="143.98" r="4.96"/>
		</g>
		<path class="st9" d="M990.96,127.71l-7-2.54c-3.06,8.04-5.8,24.5-4.31,24.24c1.49-0.27,0.59,1.69,0.07,2
			c-0.52,0.31,0.81,1.92,0.15,2.08c-0.66,0.17,0.15,1.59,0.25,2.38c0,0,3.61,5.41,7.21,5.41s7.13-2.11,7.13-2.11l3.91,0.39
			l-1.19-15.59l-3.75,3.94l3.4-14.48C996.85,133.44,990.96,127.71,990.96,127.71z"/>
	</g>
</g>
<g>
	<path class="st14" d="M827.97,814.57c-14.62,0-29.21-0.23-43.79-0.68c-20.82-0.65-42.36-1.32-62.37-10.96
		c-14-6.74-26.4-17.56-35.86-31.29c-6.24-9.13-10.89-19.24-13.74-29.92c-1.4-5.14-2.41-10.37-3.03-15.66
		c-1.7-14.29-0.5-28.77,3.55-42.57c1.97-6.61,4.64-12.98,7.99-19.01c14.6-26.25,41.22-43.87,73.04-48.34
		c0.26-0.03,0.53-0.03,0.79-0.01c0.14,0.01,0.29,0.01,0.43,0.01l0.19-0.05c0.48-0.15,0.98-0.26,1.47-0.33
		c49.08-6.34,100.96,6.49,150.03,37.13c37.94,23.69,88.23,36.44,153.73,39l0.93,0.04c18.23,0.91,35.87,7.44,51.01,18.88
		c14.79,11.09,26.06,26.23,32.44,43.58c0.77,2.1,1.48,4.28,2.1,6.49c1.18,4.18-0.19,8.4-3.76,11.62v0l-0.16,0.15
		c-0.39,0.34-0.81,0.66-1.23,0.97l-0.5,0.36c-4.19,2.99-7.49,5.36-11.45,7.2c-2.67,1.23-5.47,2.15-8.35,2.74
		c-15.96,3.38-32.17,6.51-48.18,9.31c-31.09,5.44-62.99,9.93-94.83,13.35C928.45,811.9,878.23,814.58,827.97,814.57z M754.17,617.05
		c-0.1,0-0.2,0.01-0.29,0.02c-31.52,4.43-57.89,21.88-72.34,47.87c-3.31,5.97-5.96,12.28-7.91,18.82
		c-4.01,13.68-5.21,28.04-3.52,42.19c0.62,5.24,1.62,10.43,3.01,15.52c2.83,10.58,7.43,20.6,13.61,29.64
		c9.37,13.59,21.64,24.3,35.49,30.97c19.83,9.55,41.27,10.22,61.99,10.87c64.79,2.01,129.65-0.44,194.1-7.34
		c31.82-3.41,63.7-7.9,94.77-13.34c16-2.8,32.19-5.93,48.14-9.31c2.81-0.58,5.54-1.47,8.15-2.67c3.88-1.8,7.15-4.14,11.3-7.11
		l0.5-0.36c0.36-0.26,0.72-0.54,1.06-0.83l0.1-0.09c3.41-2.98,4.73-6.92,3.63-10.79v0c-0.62-2.19-1.32-4.35-2.08-6.42
		c-12.83-35.16-46.03-60.02-82.61-61.84l-0.92-0.04c-29.92-1.17-56.1-4.4-80.04-9.88c-28.58-6.54-53.52-16.39-74.15-29.26
		c-48.88-30.52-100.55-43.31-149.41-36.99c-0.45,0.07-0.9,0.17-1.34,0.3l-0.34,0.08c-0.19,0.01-0.39,0-0.58-0.01
		C754.39,617.06,754.28,617.05,754.17,617.05z"/>
	<path class="st9" d="M1142.64,772.27L1142.64,772.27c-0.38,0.33-0.78,0.65-1.19,0.95c-6.91,4.94-11.63,8.41-20.12,10.21
		c-16,3.39-32.05,6.49-48.16,9.31c-31.43,5.5-63.03,9.95-94.8,13.34c-64.48,6.91-129.35,9.37-194.17,7.34
		c-21.58-0.67-42.4-1.39-62.18-10.91c-14.46-6.96-26.6-17.97-35.67-31.13c-9.2-13.35-14.79-29.14-16.7-45.37
		c4.48-1.95,9.24-3.19,14.1-3.67c16.88-1.61,33.49,4.57,48.84,11.77c15.36,7.19,30.43,15.59,47.06,18.91
		c24.5,4.89,49.79-1.76,73.28-10.27c23.49-8.51,46.61-19.02,71.39-22.23c33.23-4.31,66.57,4.82,98.83,13.86
		c34.37,9.63,68.74,19.26,103.11,28.9c4.91,1.37,10.01,2.85,13.84,6.21C1141.05,770.31,1141.9,771.25,1142.64,772.27z"/>
	<path class="st8" d="M1142.64,772.27L1142.64,772.27c-0.38,0.33-0.78,0.65-1.19,0.95c-4.33,3.1-7.8,5.62-11.87,7.51
		c-14.01,1.38-28.03,2.57-42.07,3.58c-36.15,2.59-72.36,3.97-108.65,4.14c-73.61,0.38-151.01,2.68-215.46-33.07
		c-21.45-11.9-52.51,12.5-73.76-0.55c-6.12-3.77-11.81-8.21-16.97-13.22c-1.39-5.11-2.4-10.33-3.02-15.59
		c-1.71-14.22-0.5-28.64,3.53-42.38c1.95-6.57,4.62-12.92,7.95-18.91c9.87,3.54,19.34,8.64,28.35,14.04
		c16.52,9.89,32.59,21.13,50.99,26.79c27.12,8.35,56.46,3.76,83.99-3.15s54.86-16.11,83.22-16.88
		c38.04-1.04,74.66,13.13,110.07,27.07c35.52,13.99,71.05,27.97,106.59,41.96c0.78,2.12,1.48,4.27,2.09,6.46
		C1147.67,765.43,1145.85,769.46,1142.64,772.27z"/>
	<path class="st9" d="M796.27,591.66c-5.35-3.61-4.83-11.5,0.83-14.6c0.12-0.06,0.23-0.13,0.34-0.2c0.28-1.36,0.57-2.72,0.85-4.07
		c1.67,1.73,4.95,1.41,6.25-0.62c-4.51-9.62-10.45-18.52-17.6-26.38c-3.23-3.56-3.29-8.98-0.14-12.61c0.03-0.03,0.05-0.06,0.08-0.1
		c4.04-1.36,7.87-3.3,11.36-5.74c-11.99-19.27-34.86-34.57-40.29-56.61c-16.35,17.56-18.19,23.74-34.54,41.3
		c0,0-15.48,13.97-18.82,21.48c0.82,0.86,8.17,2.93,8.46,4.63c5.61,0.45,15.32-5.7,15.32-5.7s-21.2,22.6-27.64,36.52
		c-0.58,1.25-1.13,2.69-0.64,3.98c0.39,1.03,1.78,1.63,2.67,1.22c-1.07,1.03-1.93,2.26-2.53,3.62c3.85,2.46,8.87,1.95,12.15-1.22
		c-0.9,1.67-1.79,3.35-2.69,5.02l0,0c3.84,1.26,5.94,5.39,4.69,9.24c-0.39,1.18-1.06,2.24-1.97,3.09
		c-5.56,5.17-10.65,10.61-12.51,14.19c-1.75,3.37,16.24,7.43,20.29,7.26c4.05-0.17,7.83-1.94,11.48-3.69
		c-0.18,1.67,0.14,3.35,0.92,4.83c4.04,0.98,8.31,0.29,11.84-1.91c-0.16,3.33,4.04,5.17,6.96,4.23
		c-1.46,23.05-0.39,55.41,1.01,89.01h3.47v-87.68c0.92,0.47,1.91,0.8,2.93,0.97c7.1,1.26,15.68,2.03,20.3-3.51
		c5.32,5.37,15.07,5.26,20.36-0.08c-0.52,0.92,0.28,2.47,1.46,2.72c1.39,0.29,2.74-0.54,3.92-1.33c5.34-3.57,10.68-7.14,16.02-10.71
		C814.27,603.79,804.91,597.48,796.27,591.66z"/>
	<circle class="st8" cx="956.56" cy="564.17" r="16.77"/>
	<path class="st9" d="M994.09,556.23c-0.97-3.25-3.71-5.37-7.02-5.83c-0.04-0.01-0.07,0-0.11,0c-0.05-0.01-0.09-0.03-0.14-0.03
		c-4.69-0.57-9.43,0.46-13.46,2.93c-3.88,2.42-8.4,3.52-12.97,3.7c-0.03,0-0.05,0-0.08,0c-3.48,0.23-6.44,2.62-7.41,5.97
		c-0.1,0.41,0.07,0.84,0.43,1.06c0.51,0.43,1.11,0.73,1.75,0.89c1.39,0.3,2.79,0.57,4.19,0.81c2.74,0.48,5.49,0.87,8.25,1.16
		c5.61,0.6,11.26,0.82,16.9,0.64c1.88-0.06,3.69-0.12,5.41-0.95c1.25-0.62,2.32-1.55,3.11-2.71
		C994.43,561.62,994.85,558.82,994.09,556.23z"/>
	<path class="st9" d="M959.24,578.58c-0.97-3.25-3.71-5.37-7.02-5.83c-0.04-0.01-0.07,0-0.11,0c-0.05-0.01-0.09-0.03-0.14-0.03
		c-4.69-0.57-9.43,0.46-13.46,2.93c-3.88,2.42-8.4,3.52-12.97,3.7c-0.03,0-0.05,0-0.08,0c-3.48,0.23-6.44,2.62-7.41,5.97
		c-0.1,0.41,0.07,0.84,0.43,1.06c0.51,0.43,1.11,0.73,1.75,0.89c1.39,0.29,2.79,0.57,4.19,0.81c2.74,0.48,5.49,0.87,8.25,1.16
		c5.61,0.6,11.26,0.82,16.9,0.64c1.88-0.06,3.69-0.12,5.41-0.95c1.25-0.62,2.32-1.55,3.11-2.71
		C959.59,583.97,960,581.18,959.24,578.58z"/>
	<path class="st9" d="M1101.13,648.59c-5.35-3.61-4.83-11.5,0.83-14.6c0.12-0.06,0.23-0.13,0.34-0.2c0.28-1.36,0.57-2.72,0.85-4.07
		c1.67,1.73,4.95,1.41,6.25-0.62c-4.51-9.62-10.45-18.52-17.6-26.38c-3.23-3.56-3.29-8.98-0.14-12.61c0.03-0.03,0.05-0.06,0.08-0.1
		c4.04-1.36,7.87-3.3,11.36-5.74c-11.99-19.27-34.86-34.57-40.29-56.61c-16.35,17.56-18.19,23.74-34.54,41.3
		c0,0-15.48,13.97-18.83,21.48c0.82,0.86,8.17,2.93,8.46,4.63c5.61,0.45,15.32-5.7,15.32-5.7s-21.2,22.6-27.64,36.52
		c-0.58,1.25-1.13,2.69-0.64,3.98c0.39,1.03,1.78,1.63,2.67,1.22c-1.07,1.03-1.93,2.26-2.53,3.62c3.84,2.46,8.87,1.95,12.15-1.22
		c-0.9,1.67-1.79,3.35-2.69,5.02l0,0c3.84,1.26,5.94,5.39,4.69,9.24c-0.39,1.18-1.06,2.24-1.97,3.09
		c-5.56,5.17-10.65,10.61-12.51,14.19c-1.75,3.37,16.24,7.43,20.29,7.26c4.05-0.17,7.83-1.94,11.48-3.69
		c-0.18,1.67,0.14,3.35,0.92,4.83c4.04,0.98,8.31,0.29,11.84-1.91c-0.16,3.33,4.04,5.17,6.96,4.23
		c-1.46,23.05-0.39,55.41,1.01,89.01h3.47v-87.68c0.92,0.47,1.91,0.8,2.93,0.97c7.1,1.26,15.68,2.03,20.3-3.51
		c5.32,5.37,15.07,5.26,20.36-0.08c-0.52,0.92,0.28,2.47,1.46,2.72c1.39,0.29,2.74-0.54,3.92-1.33c5.34-3.57,10.68-7.14,16.02-10.71
		C1119.13,660.72,1109.77,654.41,1101.13,648.59z"/>
	<path class="st9" d="M698.06,737.97c0.94,0.04,1.73-0.68,1.78-1.62c0.02-0.5-0.18-0.99-0.54-1.33c-0.04-0.17-0.07-0.29-0.12-0.46
		c0.02-0.04,0.03-0.07,0.05-0.11c0.98-2.32,3.66-3.41,5.98-2.42c1.1,0.47,1.98,1.35,2.44,2.46c1.38,3.32,3.13,6.64,3.56,10.15
		c0.19,1.55,0.11,3.12-0.24,4.64c3.23-7.06,4.91-14.73,4.93-22.49c0-1.95-0.11-3.89-0.32-5.83c-0.18-1.59-0.43-3.16-0.75-4.73
		c-1.73-8.49-5.46-16.44-10.86-23.21c-2.62-1.43-4.73-3.62-6.06-6.29c-0.48-0.96-0.82-1.98-1.01-3.04c0.3,0.04,0.6,0.06,0.89,0.08
		c0.09,0,0.19,0.01,0.28,0.01l0.03,0c0.93,0.04,1.72-0.68,1.76-1.61c0.02-0.41-0.11-0.82-0.37-1.14c-0.13-0.16-0.25-0.31-0.38-0.47
		c-0.19-0.24-0.39-0.48-0.59-0.72c-0.02-0.02-0.04-0.05-0.06-0.07c-0.22-0.28-0.45-0.55-0.67-0.82c0.41-0.63,0.95-1.16,1.6-1.54
		c2.23-1.31,5.31-0.4,6.92,1.62c1.62,2.02,1.92,4.85,1.36,7.37c-0.55,2.14-1.46,4.18-2.7,6.02c0.12,0.15,0.25,0.3,0.37,0.46
		c2.21,2.84,4.14,5.9,5.75,9.11c-0.39-3.61,0.08-7.25,1.37-10.64c1.31-3.16,3.76-5.82,5.93-8.55c2.6-3.28,7.92-1.85,8.38,2.31
		c0,0.04,0.01,0.08,0.01,0.12c-0.32,0.18-0.64,0.37-0.94,0.58c-1.06,0.71-1.34,2.14-0.64,3.2c0.36,0.54,0.93,0.9,1.57,1l0.05,0.01
		c-0.11,1.16-0.32,2.3-0.6,3.43c-1.69,6.36-5.95,11.72-11.76,14.8c-0.19,0.1-0.37,0.19-0.56,0.29c0.87,2.44,1.56,4.94,2.07,7.47
		c0.46,2.24,0.78,4.5,0.96,6.78c0.22,2.87,0.21,5.75-0.04,8.62l0.01-0.1c0.62-3.19,2.32-6.06,4.81-8.14
		c3.7-3.04,8.94-4.16,12.93-6.61c1.23-0.79,2.87-0.43,3.66,0.8c0.34,0.53,0.48,1.16,0.4,1.78c-0.01,0.04-0.01,0.07-0.02,0.11
		c-0.6,0.24-1.18,0.52-1.74,0.84c-0.32,0.18-0.64,0.37-0.94,0.58c-1.06,0.71-1.34,2.14-0.64,3.2c0.36,0.54,0.93,0.9,1.57,1
		l0.05,0.01c0.03,0,0.06,0.01,0.1,0.01c-1.02,2.43-2.45,4.67-4.22,6.61c-4.44,4.76-10.64,7.48-17.15,7.52h0
		c-0.87,3.8-2.14,7.49-3.78,11.03h-13.5c-0.05-0.15-0.09-0.3-0.14-0.45c1.25,0.08,2.5,0,3.74-0.22c-1-1.23-2-2.47-3-3.7
		c-0.02-0.02-0.04-0.05-0.06-0.07c-0.51-0.63-1.02-1.25-1.53-1.88l0,0C697.38,741.76,697.6,739.84,698.06,737.97L698.06,737.97z"/>
	<path class="st9" d="M1100.31,751.14c0.94,0.04,1.73-0.68,1.78-1.62c0.02-0.5-0.18-0.99-0.54-1.33c-0.04-0.17-0.07-0.29-0.12-0.46
		c0.02-0.04,0.03-0.07,0.05-0.11c0.98-2.32,3.66-3.41,5.98-2.42c1.1,0.47,1.98,1.35,2.44,2.46c1.38,3.32,3.13,6.64,3.56,10.15
		c0.19,1.55,0.11,3.12-0.24,4.64c3.23-7.06,4.91-14.73,4.93-22.49c0-1.95-0.11-3.89-0.32-5.83c-0.18-1.59-0.43-3.16-0.75-4.73
		c-1.73-8.49-5.46-16.44-10.86-23.21c-2.62-1.43-4.73-3.62-6.06-6.29c-0.48-0.96-0.82-1.98-1.01-3.04c0.3,0.04,0.6,0.06,0.89,0.08
		c0.09,0,0.19,0.01,0.28,0.01l0.03,0c0.93,0.04,1.72-0.68,1.76-1.61c0.02-0.41-0.11-0.82-0.37-1.14c-0.13-0.16-0.25-0.31-0.38-0.47
		c-0.19-0.24-0.39-0.48-0.59-0.72c-0.02-0.02-0.04-0.05-0.06-0.07c-0.22-0.28-0.45-0.55-0.67-0.82c0.41-0.63,0.95-1.16,1.6-1.54
		c2.23-1.31,5.31-0.4,6.92,1.62c1.62,2.02,1.92,4.85,1.36,7.37c-0.55,2.14-1.46,4.18-2.7,6.02c0.12,0.15,0.25,0.3,0.37,0.46
		c2.21,2.84,4.14,5.9,5.75,9.12c-0.39-3.61,0.08-7.25,1.37-10.64c1.31-3.16,3.76-5.82,5.93-8.55c2.6-3.28,7.92-1.85,8.38,2.31
		c0,0.04,0.01,0.08,0.01,0.12c-0.32,0.18-0.64,0.37-0.94,0.58c-1.06,0.71-1.34,2.14-0.64,3.2c0.36,0.54,0.93,0.9,1.57,1l0.05,0.01
		c-0.11,1.16-0.32,2.3-0.6,3.43c-1.69,6.36-5.95,11.72-11.76,14.8c-0.19,0.1-0.37,0.19-0.56,0.29c1.62,4.6,2.64,9.39,3.03,14.25
		c0.22,2.87,0.21,5.75-0.04,8.62l0.01-0.1c0.62-3.19,2.32-6.06,4.81-8.14c3.7-3.04,8.94-4.16,12.94-6.61
		c1.23-0.79,2.87-0.43,3.66,0.8c0.34,0.53,0.48,1.16,0.4,1.78c-0.01,0.04-0.01,0.07-0.02,0.11c-0.6,0.24-1.18,0.52-1.74,0.84
		c-0.32,0.18-0.64,0.37-0.94,0.58c-1.06,0.71-1.34,2.14-0.64,3.2c0.36,0.54,0.93,0.9,1.57,1l0.05,0.01c0.03,0,0.06,0.01,0.1,0.01
		c-1.02,2.43-2.45,4.67-4.22,6.61c-4.44,4.76-10.64,7.48-17.15,7.52h0c-0.87,3.8-2.14,7.49-3.78,11.03h-13.5
		c-0.05-0.15-0.09-0.3-0.14-0.45c1.25,0.08,2.5,0,3.73-0.22c-1-1.23-2-2.47-3-3.7c-0.02-0.02-0.04-0.05-0.06-0.07
		c-0.51-0.63-1.02-1.25-1.53-1.88l0,0C1099.62,754.94,1099.84,753.01,1100.31,751.14L1100.31,751.14z"/>
	<path class="st9" d="M939.88,712.09c0.94,0.04,1.73-0.68,1.78-1.62c0.02-0.5-0.18-0.99-0.54-1.33c-0.04-0.17-0.07-0.29-0.12-0.46
		c0.02-0.04,0.03-0.07,0.05-0.11c0.98-2.32,3.66-3.41,5.98-2.42c1.1,0.47,1.98,1.35,2.44,2.46c1.38,3.32,3.13,6.64,3.56,10.15
		c0.19,1.55,0.11,3.12-0.24,4.64c3.23-7.06,4.91-14.73,4.93-22.49c0-1.95-0.11-3.89-0.32-5.83c-0.18-1.59-0.43-3.16-0.75-4.73
		c-1.73-8.49-5.46-16.44-10.86-23.21c-2.62-1.43-4.73-3.62-6.06-6.29c-0.48-0.96-0.82-1.98-1.01-3.04c0.3,0.04,0.6,0.06,0.89,0.08
		c0.09,0,0.19,0.01,0.28,0.01l0.03,0c0.93,0.04,1.72-0.68,1.76-1.61c0.02-0.41-0.11-0.82-0.37-1.14c-0.13-0.16-0.25-0.31-0.38-0.47
		c-0.19-0.24-0.39-0.48-0.59-0.72c-0.02-0.02-0.04-0.05-0.06-0.07c-0.22-0.28-0.45-0.55-0.67-0.82c0.41-0.63,0.95-1.16,1.6-1.54
		c2.23-1.31,5.31-0.4,6.92,1.62c1.62,2.02,1.92,4.85,1.36,7.37c-0.55,2.14-1.46,4.18-2.7,6.02c0.12,0.15,0.25,0.3,0.37,0.46
		c2.21,2.84,4.14,5.9,5.75,9.11c-0.39-3.61,0.08-7.25,1.37-10.64c1.31-3.16,3.76-5.82,5.93-8.55c2.6-3.28,7.92-1.85,8.38,2.31
		c0,0.04,0.01,0.08,0.01,0.12c-0.32,0.18-0.64,0.37-0.94,0.58c-1.06,0.71-1.34,2.14-0.64,3.2c0.36,0.54,0.93,0.9,1.57,1l0.05,0.01
		c-0.11,1.16-0.32,2.3-0.6,3.43c-1.69,6.36-5.95,11.72-11.76,14.8c-0.19,0.1-0.37,0.19-0.56,0.29c1.62,4.6,2.64,9.39,3.03,14.25
		c0.22,2.87,0.21,5.75-0.04,8.62l0.01-0.1c0.62-3.19,2.32-6.06,4.81-8.14c3.7-3.04,8.94-4.16,12.93-6.61
		c1.23-0.79,2.87-0.43,3.66,0.8c0.34,0.53,0.48,1.16,0.4,1.78c-0.01,0.04-0.01,0.07-0.02,0.11c-0.6,0.24-1.18,0.52-1.74,0.84
		c-0.32,0.18-0.64,0.37-0.94,0.58c-1.06,0.71-1.34,2.14-0.64,3.2c0.36,0.54,0.93,0.9,1.57,1l0.05,0.01c0.03,0,0.06,0.01,0.1,0.01
		c-1.02,2.43-2.45,4.67-4.22,6.61c-4.44,4.76-10.64,7.48-17.15,7.52h0c-0.87,3.8-2.14,7.49-3.78,11.03h-13.5
		c-0.05-0.15-0.09-0.3-0.14-0.45c1.25,0.08,2.5,0,3.73-0.22c-1-1.23-2-2.47-3-3.7c-0.02-0.02-0.04-0.05-0.06-0.07
		c-0.51-0.63-1.02-1.25-1.53-1.88l0,0C939.19,715.89,939.42,713.96,939.88,712.09L939.88,712.09z"/>
	<polygon class="st12" points="854.11,814.67 859.76,812.99 856.02,789.9 847.69,792.37 	"/>
	<path class="st12" d="M819.47,805.55c0.34,0.3,0.69,0.6,1.04,0.89c0.69,0.59,1.39,1.18,2.1,1.76c0.35,0.29,0.71,0.58,1.06,0.86
		l0,0.01l0.02,0.01l0.01,0.01l0.57,0.24l1.21-2.12l0.56-0.98l0.79-1.38l1.44-2.53l7.6-13.31l-8.01-3.38l-0.51,1.23l0,0l-0.25,0.61
		l-4.78,11.35l-0.98,2.32l-0.03,0.07l-0.59,1.39l-0.51,1.2l-0.56,1.34L819.47,805.55z"/>
	<path class="st13" d="M777.62,747.97c0.39,0.93,0.8,1.86,1.21,2.79c0.76,1.72,1.56,3.42,2.38,5.1c0,0,0,0,0.01,0.01
		c0.53,0.67,1.14,1.28,1.81,1.82c0.03,0.03,0.06,0.05,0.09,0.07c0.5,0.39,1.04,0.71,1.61,0.96c0.21,0.09,0.42,0.18,0.63,0.27
		c0.75,0.31,1.5,0.59,2.24,0.85c1.33,0.46,2.65,0.85,3.97,1.17c0.11,0.03,0.21,0.05,0.32,0.08c5.46,1.28,10.93,1.48,16.71,1.3
		c2.85-0.09,5.78-0.27,8.81-0.45c0.99-0.06,1.98-0.12,2.99-0.18c0.08,0,0.16-0.01,0.24-0.01c1.44-0.08,2.9-0.16,4.39-0.23
		c1.88-0.09,3.82-0.15,5.82-0.18l-0.57,2.73c-0.45,2.1-1.22,4.11-2.28,5.98c-1.22,2.31-2.18,4.13-1.43,8.37l0.36,2.05
		c-1.02,1.85-1.11,4.06-0.25,5.98l0.1,0.23l-7.84,13.27l-0.51,0.86l2.87,0.45l3.52,0.56l5.97,0.95l11.36-15.93l0.54-0.76l0.01-0.04
		l4.37-33.38c0.03-0.29,0.06-0.6,0.07-0.89c0.11-2.74-0.89-5.41-2.77-7.41c-1.8-1.93-4.3-3.06-6.93-3.13l-3.01-0.09l-6.15-0.18
		l-4.33-0.12l-0.09,0l-12.78-0.36l-0.32-3.81l-0.16-0.09l-4.97-2.77l-17.18-9.57l-0.04-0.02l-1.13-0.63l-0.18,0.21
		c-0.05,0.06-0.11,0.13-0.16,0.19c-1.52,1.94-2.84,4.03-3.94,6.23c-1.83,3.6-3.45,7.3-4.86,11.08c-0.06,0.16-0.12,0.31-0.17,0.45
		l-0.02,0.04c-0.02,0.06-0.04,0.1-0.04,0.12C777.23,743.55,777.19,745.73,777.62,747.97z"/>
	<path class="st13" d="M778.79,735.6c0.1-0.24,0.21-0.48,0.33-0.71c0.9-1.74,1.9-3.44,2.99-5.07c1.23-1.86,2.66-3.84,4.33-5.96
		c0.81-1.03,1.67-2.09,2.59-3.19c0.46-0.55,0.93-1.11,1.43-1.68c0.02-0.03,0.04-0.05,0.06-0.08l0.14-0.17l17.66,5.27l-0.01,2.42
		l1.28,3.43l-0.09,0.1c0,0,0,0,0,0v-0.47l0.47,0.47l4.55,5.63l0.03,0l10.17,0.29l10.49,0.3l5.63,0.16c2.64,0.07,5.13,1.2,6.93,3.13
		c1.88,2,2.88,4.67,2.77,7.41c-0.01,0.28-0.03,0.56-0.06,0.83l3.25,13.16c1.95,7.87,2.69,15.99,2.22,24.09l1.88,12.81l-0.55-0.04
		l-8.21-0.53l-2.17-0.14l-3.62-7.61c-0.41-0.87-0.79-1.75-1.14-2.66c-0.57-1.47-1.04-2.98-1.42-4.51l-6.34-25.83
		c-0.81,0.01-1.61,0.02-2.4,0.02c-3.66,0.01-7.16-0.06-10.5-0.21c-10.86-0.5-20.12-1.87-28.18-4.18c-2.27-0.65-4.44-1.37-6.52-2.17
		c-0.76-0.29-1.52-0.59-2.26-0.91c-0.17-0.07-0.35-0.14-0.52-0.22c-3.11-1.35-5.32-4.18-5.87-7.52
		C777.83,739.35,778.05,737.39,778.79,735.6z"/>
	<path class="st13" d="M853,810.82l6.11-1.82l0.96-0.29l0.87,3.72l9.59,3.76c1.23,0.48,1.83,1.86,1.35,3.09
		c-0.29,0.73-0.91,1.28-1.68,1.45l-10.34,2.42l-2.64-3.26l0.17,3.84l-3.89,0.91l-1.99-13.39L853,810.82z"/>
	<polygon class="st13" points="818.94,799.9 818.43,800.77 818.79,800.82 	"/>
	<path class="st13" d="M820.74,801.33l5.63,3.01l0.88,0.47l-2,3.26l4.17,9.42c0.53,1.2-0.01,2.62-1.21,3.15
		c-0.72,0.32-1.55,0.26-2.22-0.15l-9.05-5.55l0.42-4.18l-2.58,2.85l-3.41-2.09l8.01-10.91L820.74,801.33z"/>
	<path class="st12" d="M861.4,630.01c0.2,2.36-1.54,4.43-3.89,4.63c-0.25,0.02-0.5,0.02-0.75,0l-6.26,13.87l-4.23-6.68l6.59-12.14
		c0.37-2.35,2.57-3.95,4.92-3.58C859.74,626.41,861.24,628.02,861.4,630.01L861.4,630.01z"/>
	<path class="st7" d="M845.48,671.26l-28.67,21.94c-4.74,3.62-11.5,2.71-15.13-2.01l0,0c-3.62-4.73-2.72-11.51,2.01-15.13
		c0.52-0.4,1.09-0.75,1.67-1.05l28.58-14.5l12.79-24.91l8.59,2.55L845.48,671.26z"/>
	<path class="st7" d="M784.42,697.31l-0.58,21.29c-8,13.51-8.91,20.08-6.69,23.57l32.89-12.01l0.55-1.32l1.72-9.51l3.11-9.81
		c0.55-1.03,7.99-7.32,1.01-19.27l-14.04-18.91l-11.25-0.64c-1.85,4.76,1.49,7.36-1.85,8.45
		C781.75,686.06,782.86,687.19,784.42,697.31z"/>
	<path class="st12" d="M762.06,757.07c-0.96-2.16,0.01-4.69,2.17-5.65c0.23-0.1,0.47-0.18,0.71-0.25l1.39-15.15l6.17,4.94
		l-2.26,13.63c0.42,2.34-1.14,4.58-3.48,4.99C764.8,759.93,762.85,758.89,762.06,757.07L762.06,757.07z"/>
	<path class="st7" d="M763.63,712.89l19.94-30.09c3.3-4.96,9.99-6.32,14.96-3.04l0,0c4.97,3.29,6.33,9.99,3.04,14.96
		c-0.36,0.55-0.78,1.07-1.24,1.54l-22.28,23.04l-3.95,27.72l-8.95,0.39L763.63,712.89z"/>
	<path class="st13" d="M805.88,644.86c3.98,7.84,1.38,16.92-6,21.69c-7.98,5.16-18.34,4.03-21.69-6c-3.73-11.17-0.67-15.97,6-21.69
		C792,632.15,801.59,636.39,805.88,644.86z"/>
	<path class="st12" d="M786.31,662.32c4.22,5.53,12.12,6.59,17.65,2.37c5.52-4.21,6.59-12.1,2.39-17.63l-0.11-0.14
		c-4.34-5.43-12.26-6.32-17.7-1.98C783.23,649.19,782.24,656.88,786.31,662.32L786.31,662.32z"/>
	<path class="st13" d="M809.74,643.59c-2.05,1.95-4.54,3.36-7.26,4.12c-0.55-0.63-1.19-1.17-1.91-1.59c0.35,0.72,0.58,1.48,0.7,2.27
		c-1.21,2.52-6.17,4.33-10.91,6.18l-6.28-11.08l8.31-4.71C799.06,634.17,806.92,636.14,809.74,643.59z"/>
	<path class="st13" d="M779.34,638.87c-1.13-0.52-2.6-0.2-3.66,0.53c-1.01,0.77-1.83,1.76-2.39,2.9c-1.02,1.85-1.75,3.84-2.17,5.9
		c-0.36,1.79-0.3,3.95,1.31,4.88c1.34,0.78,3.25,0.29,4.48-0.75s1.92-2.5,2.52-3.92s1.17-2.9,2.23-4.09l-1.11,0.52
		c0.35-1.06,0.51-2.18,0.48-3.3C780.99,640.42,780.34,639.4,779.34,638.87z"/>
	<path class="st13" d="M793.71,640.32l-8.91,5.05c-5.02,2.84-6.78,9.22-3.94,14.24l0,0c4.12,7.27,13.1,10.22,20.73,6.8l-8.14-7.19
		l11.05,5.63l2.36-1.34C795,661.36,792.72,652.07,793.71,640.32z"/>
</g>
</svg>
